<svg width="114" height="231" viewBox="0 0 114 231" fill="none" xmlns="http://www.w3.org/2000/svg">
<rect width="114" height="231" fill="#EEEEEE"/>
<path d="M28.3516 129.012C28.4375 128.996 28.5156 128.988 28.5859 128.988C28.6562 128.98 28.7266 128.973 28.7969 128.965L28.5859 129.82C28.3047 129.797 27.9727 129.781 27.5898 129.773C27.2148 129.766 26.8203 129.758 26.4062 129.75C26 129.75 25.5938 129.754 25.1875 129.762C24.7812 129.77 24.4102 129.781 24.0742 129.797C24.0586 129.859 24.043 129.926 24.0273 129.996C24.0195 130.074 24.0078 130.152 23.9922 130.23L23.2305 130.359C23.207 130.203 23.1797 130.008 23.1484 129.773C23.125 129.547 23.1055 129.332 23.0898 129.129L22.9492 126.984C22.9414 126.844 22.9258 126.734 22.9023 126.656C22.8867 126.57 22.8477 126.5 22.7852 126.445C22.7305 126.391 22.6484 126.344 22.5391 126.305C22.4375 126.258 22.2969 126.211 22.1172 126.164L22.3281 125.73C23.3594 125.863 24.4102 125.918 25.4805 125.895C26.5586 125.863 27.6211 125.801 28.668 125.707C28.6367 125.91 28.6055 126.152 28.5742 126.434C28.5508 126.715 28.5234 127.008 28.4922 127.312C28.4609 127.617 28.4336 127.918 28.4102 128.215C28.3867 128.512 28.3672 128.777 28.3516 129.012ZM27.4258 126.48C27.1836 126.473 26.9102 126.469 26.6055 126.469C26.3086 126.461 26.0078 126.461 25.7031 126.469C25.3984 126.477 25.1016 126.488 24.8125 126.504C24.5234 126.512 24.2734 126.52 24.0625 126.527L24.1094 128.918V129.188C24.625 129.18 25.1719 129.164 25.75 129.141C26.3281 129.125 26.875 129.105 27.3906 129.082L27.4258 126.48ZM26.3008 119.027C26.4883 119.051 26.6953 119.082 26.9219 119.121C27.1484 119.152 27.375 119.191 27.6016 119.238C27.8281 119.277 28.043 119.316 28.2461 119.355C28.457 119.395 28.6406 119.426 28.7969 119.449C28.7812 119.52 28.7617 119.605 28.7383 119.707C28.7227 119.809 28.707 119.914 28.6914 120.023C28.6836 120.125 28.6758 120.219 28.668 120.305C28.6602 120.391 28.6562 120.453 28.6562 120.492V123.469C28.6562 123.609 28.6484 123.773 28.6328 123.961C28.625 124.148 28.6094 124.336 28.5859 124.523C28.5703 124.711 28.5508 124.891 28.5273 125.062C28.5039 125.227 28.4805 125.355 28.457 125.449L27.6484 125.566C27.6328 125.488 27.6211 125.387 27.6133 125.262C27.6055 125.137 27.5938 125.008 27.5781 124.875C27.5703 124.734 27.5625 124.598 27.5547 124.465C27.5547 124.324 27.5547 124.199 27.5547 124.09V120.469C27.5547 120.227 27.4375 120.031 27.2031 119.883C26.9766 119.727 26.6055 119.586 26.0898 119.461L26.3008 119.027ZM25.8203 120.598C25.6328 121.184 25.3398 121.762 24.9414 122.332C24.5508 122.902 24.0938 123.441 23.5703 123.949C23.0547 124.457 22.4883 124.918 21.8711 125.332C21.2617 125.746 20.6445 126.094 20.0195 126.375L19.7266 126.012C20.2188 125.754 20.6992 125.441 21.168 125.074C21.6445 124.707 22.0859 124.312 22.4922 123.891C22.9062 123.469 23.2734 123.027 23.5938 122.566C23.9141 122.098 24.1641 121.633 24.3438 121.172C24.1719 121.172 23.9922 121.176 23.8047 121.184C23.6172 121.184 23.4336 121.188 23.2539 121.195C23.082 121.203 22.9258 121.211 22.7852 121.219C22.6445 121.227 22.5352 121.234 22.457 121.242C22.3789 121.25 22.2695 121.262 22.1289 121.277C21.9961 121.285 21.8477 121.301 21.6836 121.324C21.5273 121.34 21.3672 121.359 21.2031 121.383C21.0469 121.398 20.9062 121.422 20.7812 121.453L20.1602 120.516C20.2383 120.531 20.3555 120.547 20.5117 120.562C20.668 120.57 20.8359 120.582 21.0156 120.598C21.2031 120.605 21.3867 120.613 21.5664 120.621C21.7461 120.629 21.9023 120.633 22.0352 120.633C22.3555 120.633 22.6836 120.625 23.0195 120.609C23.3633 120.594 23.6875 120.574 23.9922 120.551C24.3047 120.527 24.582 120.5 24.8242 120.469C25.0742 120.43 25.2695 120.391 25.4102 120.352L25.8203 120.598ZM34.6094 125.262C35.3203 125.199 36 125.125 36.6484 125.039C37.2969 124.953 37.9141 124.848 38.5 124.723V120.469C38.5 120.227 38.3867 120.031 38.1602 119.883C37.9336 119.727 37.5586 119.586 37.0352 119.461L37.2461 119.027C37.4414 119.051 37.6523 119.082 37.8789 119.121C38.1055 119.152 38.332 119.191 38.5586 119.238C38.7852 119.277 39 119.316 39.2031 119.355C39.4141 119.395 39.5938 119.426 39.7422 119.449C39.7266 119.52 39.7109 119.605 39.6953 119.707C39.6797 119.809 39.6641 119.914 39.6484 120.023C39.6328 120.125 39.6211 120.219 39.6133 120.305C39.6055 120.391 39.6016 120.453 39.6016 120.492V123.562C39.7656 123.555 39.9453 123.543 40.1406 123.527C40.3438 123.504 40.5469 123.48 40.75 123.457C40.9531 123.434 41.1523 123.41 41.3477 123.387C41.543 123.355 41.7266 123.324 41.8984 123.293L41.7695 124.207C41.6367 124.199 41.4805 124.195 41.3008 124.195C41.1211 124.195 40.9336 124.195 40.7383 124.195C40.543 124.195 40.3438 124.195 40.1406 124.195C39.9453 124.195 39.7656 124.195 39.6016 124.195V125.332C39.6016 125.512 39.5938 125.703 39.5781 125.906C39.5703 126.109 39.5586 126.316 39.543 126.527C39.5273 126.73 39.5039 126.926 39.4727 127.113C39.4492 127.293 39.4258 127.449 39.4023 127.582L38.5938 127.711C38.5781 127.617 38.5664 127.488 38.5586 127.324C38.5508 127.16 38.5391 126.984 38.5234 126.797C38.5156 126.602 38.5078 126.41 38.5 126.223C38.5 126.027 38.5 125.859 38.5 125.719V125.238C38.0234 125.332 37.5391 125.422 37.0469 125.508C36.5547 125.594 36.0664 125.672 35.582 125.742C35.1055 125.805 34.6445 125.863 34.1992 125.918C33.7617 125.965 33.3594 126.004 32.9922 126.035C32.9062 126.043 32.7852 126.055 32.6289 126.07C32.4727 126.078 32.3047 126.094 32.125 126.117C31.9531 126.133 31.7773 126.152 31.5977 126.176C31.4258 126.191 31.2734 126.211 31.1406 126.234L30.5664 125.273C30.6914 125.289 30.8398 125.305 31.0117 125.32C31.1836 125.336 31.3594 125.352 31.5391 125.367C31.7188 125.375 31.8867 125.383 32.043 125.391C32.207 125.391 32.3438 125.391 32.4531 125.391C32.6328 125.383 32.8125 125.375 32.9922 125.367C33.1719 125.359 33.3477 125.352 33.5195 125.344V123.703C33.5195 123.578 33.5117 123.473 33.4961 123.387C33.4805 123.301 33.4414 123.23 33.3789 123.176C33.3164 123.113 33.2227 123.062 33.0977 123.023C32.9805 122.977 32.8203 122.934 32.6172 122.895L32.793 122.484C32.9258 122.492 33.0703 122.504 33.2266 122.52C33.3906 122.535 33.5586 122.555 33.7305 122.578C33.9023 122.594 34.0742 122.613 34.2461 122.637C34.418 122.66 34.5781 122.688 34.7266 122.719C34.7109 122.789 34.6953 122.871 34.6797 122.965C34.6719 123.059 34.6602 123.152 34.6445 123.246C34.6367 123.34 34.6289 123.426 34.6211 123.504C34.6133 123.582 34.6094 123.645 34.6094 123.691V125.262ZM35.7812 124.359C35.8203 124.148 35.8594 123.906 35.8984 123.633C35.9375 123.359 35.9727 123.074 36.0039 122.777C36.0352 122.48 36.0625 122.191 36.0859 121.91C36.1094 121.621 36.1211 121.359 36.1211 121.125C35.6523 121.125 35.2109 121.133 34.7969 121.148C34.3828 121.164 33.9375 121.191 33.4609 121.23C33.2266 121.254 32.957 121.281 32.6523 121.312C32.3555 121.344 32.0625 121.387 31.7734 121.441L31.2461 120.504C31.5586 120.535 31.8828 120.566 32.2188 120.598C32.5625 120.621 32.8594 120.633 33.1094 120.633C33.7188 120.633 34.3633 120.613 35.043 120.574C35.7305 120.527 36.4219 120.449 37.1172 120.34L37.4336 120.621C37.3164 121.277 37.1914 121.918 37.0586 122.543C36.9336 123.16 36.7578 123.738 36.5312 124.277L35.7812 124.359ZM40.3164 129.984C39.832 129.961 39.3281 129.941 38.8047 129.926C38.2812 129.918 37.7656 129.918 37.2578 129.926C36.7578 129.934 36.2773 129.941 35.8164 129.949C35.3633 129.965 34.9648 129.984 34.6211 130.008C34.3477 130.023 34.1484 129.969 34.0234 129.844C33.9062 129.719 33.8477 129.57 33.8477 129.398V128.133C33.8477 127.961 33.8398 127.824 33.8242 127.723C33.8086 127.621 33.7656 127.535 33.6953 127.465C33.625 127.395 33.5195 127.336 33.3789 127.289C33.2461 127.234 33.0625 127.176 32.8281 127.113L33.0273 126.68C33.1367 126.695 33.2812 126.715 33.4609 126.738C33.6406 126.762 33.8242 126.785 34.0117 126.809C34.207 126.832 34.3945 126.859 34.5742 126.891C34.7539 126.914 34.9023 126.934 35.0195 126.949C35.0039 127.043 34.9883 127.184 34.9727 127.371C34.957 127.559 34.9492 127.723 34.9492 127.863V129.023C34.9492 129.172 34.9727 129.262 35.0195 129.293C35.0664 129.332 35.1797 129.355 35.3594 129.363C35.6484 129.371 36.0156 129.367 36.4609 129.352C36.9062 129.344 37.3672 129.324 37.8438 129.293C38.3281 129.27 38.8008 129.238 39.2617 129.199C39.7305 129.16 40.1328 129.113 40.4688 129.059L40.3164 129.984ZM47.2305 127.383C47.2305 127.586 47.2266 127.805 47.2188 128.039C47.2109 128.273 47.1992 128.508 47.1836 128.742C47.168 128.977 47.1484 129.199 47.125 129.41C47.1016 129.629 47.0742 129.82 47.043 129.984L46.2227 130.113C46.207 129.98 46.1914 129.812 46.1758 129.609C46.168 129.414 46.1602 129.211 46.1523 129C46.1445 128.781 46.1367 128.566 46.1289 128.355C46.1289 128.137 46.1289 127.941 46.1289 127.77V126.598C45.6758 126.645 45.2461 126.68 44.8398 126.703C44.7539 126.711 44.6328 126.723 44.4766 126.738C44.3281 126.754 44.1641 126.773 43.9844 126.797C43.8125 126.812 43.6367 126.832 43.457 126.855C43.2852 126.879 43.1328 126.902 43 126.926L42.4258 125.895C42.5508 125.918 42.6953 125.938 42.8594 125.953C43.0234 125.969 43.1914 125.984 43.3633 126C43.543 126.016 43.7148 126.027 43.8789 126.035C44.043 126.035 44.1914 126.035 44.3242 126.035C44.8633 126.027 45.4141 126 45.9766 125.953C46.5469 125.906 47.1055 125.852 47.6523 125.789C48.207 125.727 48.7422 125.656 49.2578 125.578C49.7812 125.492 50.2656 125.402 50.7109 125.309V120.469C50.7109 120.227 50.5938 120.031 50.3594 119.883C50.1328 119.727 49.7617 119.586 49.2461 119.461L49.4453 119.027C49.6328 119.051 49.8398 119.082 50.0664 119.121C50.293 119.152 50.5195 119.191 50.7461 119.238C50.9727 119.277 51.1875 119.316 51.3906 119.355C51.6016 119.395 51.7812 119.426 51.9297 119.449C51.9141 119.52 51.8984 119.605 51.8828 119.707C51.875 119.809 51.8633 119.914 51.8477 120.023C51.8398 120.125 51.832 120.219 51.8242 120.305C51.8164 120.391 51.8125 120.453 51.8125 120.492V126.984C51.8125 127.227 51.8047 127.508 51.7891 127.828C51.7812 128.141 51.7656 128.457 51.7422 128.777C51.7266 129.09 51.707 129.387 51.6836 129.668C51.6602 129.957 51.6328 130.188 51.6016 130.359L50.793 130.465C50.7852 130.34 50.7734 130.172 50.7578 129.961C50.75 129.75 50.7422 129.523 50.7344 129.281C50.7266 129.047 50.7188 128.805 50.7109 128.555C50.7109 128.297 50.7109 128.055 50.7109 127.828V125.812C50.1562 125.945 49.582 126.07 48.9883 126.188C48.3945 126.297 47.8086 126.391 47.2305 126.469V127.383ZM48.1328 120.398C48 120.398 47.8516 120.398 47.6875 120.398C47.5312 120.398 47.3711 120.402 47.207 120.41C47.0508 120.41 46.8984 120.414 46.75 120.422C46.6016 120.422 46.4766 120.422 46.375 120.422C46.3203 120.422 46.2422 120.426 46.1406 120.434C46.0391 120.434 45.9297 120.441 45.8125 120.457C45.6953 120.465 45.5742 120.477 45.4492 120.492C45.3242 120.5 45.2109 120.512 45.1094 120.527L44.6523 119.637C44.7383 119.66 44.8477 119.684 44.9805 119.707C45.1211 119.73 45.2656 119.754 45.4141 119.777C45.5703 119.793 45.7188 119.809 45.8594 119.824C46.0078 119.832 46.1289 119.836 46.2227 119.836C46.3164 119.836 46.4453 119.832 46.6094 119.824C46.7734 119.809 46.9492 119.793 47.1367 119.777C47.332 119.762 47.5312 119.742 47.7344 119.719C47.9453 119.695 48.1406 119.672 48.3203 119.648L48.1328 120.398ZM49.8438 121.5C49.6641 121.5 49.4453 121.5 49.1875 121.5C48.9297 121.5 48.6484 121.504 48.3438 121.512C48.0469 121.52 47.7383 121.527 47.418 121.535C47.0977 121.543 46.7891 121.551 46.4922 121.559C46.1953 121.566 45.918 121.574 45.6602 121.582C45.4102 121.59 45.2031 121.598 45.0391 121.605C44.9531 121.613 44.8359 121.625 44.6875 121.641C44.5391 121.648 44.3828 121.66 44.2188 121.676C44.0625 121.691 43.9102 121.707 43.7617 121.723C43.6133 121.738 43.4922 121.754 43.3984 121.77L42.9062 120.832C43.0156 120.855 43.1484 120.879 43.3047 120.902C43.4688 120.918 43.6328 120.934 43.7969 120.949C43.9688 120.965 44.1328 120.98 44.2891 120.996C44.4531 121.004 44.5898 121.008 44.6992 121.008C44.9648 121.008 45.3164 121.004 45.7539 120.996C46.1914 120.98 46.6602 120.961 47.1602 120.938C47.6602 120.906 48.1602 120.867 48.6602 120.82C49.1602 120.773 49.6016 120.715 49.9844 120.645L49.8438 121.5ZM48.9297 123.633C48.9297 123.867 48.8672 124.09 48.7422 124.301C48.6172 124.512 48.4453 124.695 48.2266 124.852C48.0156 125.008 47.7656 125.133 47.4766 125.227C47.1875 125.312 46.875 125.355 46.5391 125.355C46.2109 125.355 45.9023 125.309 45.6133 125.215C45.3242 125.121 45.0703 124.996 44.8516 124.84C44.6406 124.684 44.4727 124.504 44.3477 124.301C44.2227 124.09 44.1602 123.867 44.1602 123.633C44.1602 123.383 44.2227 123.152 44.3477 122.941C44.4727 122.723 44.6406 122.535 44.8516 122.379C45.0703 122.223 45.3242 122.102 45.6133 122.016C45.9023 121.93 46.2109 121.887 46.5391 121.887C46.8984 121.887 47.2227 121.938 47.5117 122.039C47.8086 122.133 48.0625 122.262 48.2734 122.426C48.4844 122.582 48.6445 122.766 48.7539 122.977C48.8711 123.188 48.9297 123.406 48.9297 123.633ZM45.3203 123.586C45.3203 123.734 45.3516 123.879 45.4141 124.02C45.4844 124.152 45.5742 124.273 45.6836 124.383C45.8008 124.484 45.9297 124.566 46.0703 124.629C46.2188 124.691 46.375 124.723 46.5391 124.723C46.7109 124.723 46.8711 124.695 47.0195 124.641C47.1758 124.578 47.3086 124.496 47.418 124.395C47.5352 124.293 47.625 124.172 47.6875 124.031C47.7578 123.891 47.793 123.742 47.793 123.586C47.793 123.438 47.7578 123.293 47.6875 123.152C47.625 123.012 47.5391 122.887 47.4297 122.777C47.3203 122.668 47.1875 122.582 47.0312 122.52C46.875 122.457 46.7109 122.426 46.5391 122.426C46.375 122.426 46.2188 122.457 46.0703 122.52C45.9219 122.574 45.793 122.652 45.6836 122.754C45.5742 122.855 45.4844 122.977 45.4141 123.117C45.3516 123.258 45.3203 123.414 45.3203 123.586ZM54.7539 129.352C54.6367 129.383 54.5234 129.379 54.4141 129.34C54.3047 129.309 54.207 129.254 54.1211 129.176C54.043 129.105 53.9766 129.02 53.9219 128.918C53.875 128.816 53.8516 128.715 53.8516 128.613C53.8516 128.41 53.9258 128.227 54.0742 128.062C54.2305 127.898 54.4297 127.816 54.6719 127.816C54.9688 127.816 55.1953 127.926 55.3516 128.145C55.5156 128.355 55.5977 128.621 55.5977 128.941C55.5977 129.379 55.4805 129.766 55.2461 130.102C55.0117 130.445 54.6641 130.695 54.2031 130.852L53.9805 130.535C54.2617 130.426 54.4805 130.277 54.6367 130.09C54.793 129.902 54.8711 129.688 54.8711 129.445C54.8711 129.352 54.832 129.32 54.7539 129.352ZM65.8867 119.895C66.2305 119.941 66.5469 120.027 66.8359 120.152C67.125 120.277 67.3711 120.434 67.5742 120.621C67.7852 120.809 67.9453 121.023 68.0547 121.266C68.1719 121.5 68.2305 121.75 68.2305 122.016C68.2305 122.328 68.1562 122.617 68.0078 122.883C67.8672 123.148 67.668 123.379 67.4102 123.574C67.1523 123.762 66.8477 123.91 66.4961 124.02C66.1445 124.129 65.7578 124.184 65.3359 124.184C64.9297 124.184 64.5547 124.129 64.2109 124.02C63.8672 123.91 63.5703 123.762 63.3203 123.574C63.0703 123.379 62.875 123.148 62.7344 122.883C62.5938 122.617 62.5234 122.328 62.5234 122.016C62.5234 121.742 62.582 121.484 62.6992 121.242C62.8242 120.992 62.9961 120.77 63.2148 120.574C63.4336 120.379 63.6914 120.223 63.9883 120.105C64.293 119.98 64.625 119.902 64.9844 119.871C64.9531 119.707 64.7773 119.582 64.457 119.496L64.6328 119.133C64.7266 119.148 64.8359 119.168 64.9609 119.191C65.0859 119.215 65.2109 119.238 65.3359 119.262C65.4688 119.285 65.5977 119.309 65.7227 119.332C65.8477 119.355 65.9609 119.375 66.0625 119.391C66.0312 119.477 66 119.562 65.9688 119.648C65.9453 119.727 65.918 119.809 65.8867 119.895ZM67.0703 121.969C67.0703 121.758 67.0234 121.559 66.9297 121.371C66.8438 121.176 66.7227 121.008 66.5664 120.867C66.4102 120.719 66.2305 120.602 66.0273 120.516C65.8242 120.43 65.6133 120.387 65.3945 120.387C65.1602 120.387 64.9414 120.43 64.7383 120.516C64.5352 120.602 64.3555 120.719 64.1992 120.867C64.0508 121.008 63.9297 121.176 63.8359 121.371C63.75 121.559 63.707 121.758 63.707 121.969C63.707 122.203 63.75 122.418 63.8359 122.613C63.9219 122.801 64.0391 122.965 64.1875 123.105C64.3438 123.238 64.5234 123.344 64.7266 123.422C64.9375 123.492 65.1602 123.527 65.3945 123.527C65.6211 123.527 65.8359 123.492 66.0391 123.422C66.2422 123.344 66.418 123.238 66.5664 123.105C66.7227 122.965 66.8438 122.801 66.9297 122.613C67.0234 122.418 67.0703 122.203 67.0703 121.969ZM67.668 127.688C67.668 127.898 67.6602 128.121 67.6445 128.355C67.6367 128.59 67.625 128.824 67.6094 129.059C67.5938 129.293 67.5742 129.516 67.5508 129.727C67.5273 129.945 67.5 130.137 67.4688 130.301L66.6719 130.441C66.6562 130.309 66.6406 130.141 66.625 129.938C66.6172 129.742 66.6094 129.535 66.6016 129.316C66.5938 129.105 66.5859 128.891 66.5781 128.672C66.5781 128.453 66.5781 128.258 66.5781 128.086V125.719C66.2266 125.727 65.8555 125.738 65.4648 125.754C65.0742 125.762 64.6914 125.773 64.3164 125.789V127.477C64.3164 127.68 64.3086 127.898 64.293 128.133C64.2852 128.367 64.2734 128.602 64.2578 128.836C64.2422 129.07 64.2227 129.293 64.1992 129.504C64.1758 129.715 64.1484 129.902 64.1172 130.066L63.332 130.207C63.3164 130.074 63.3008 129.906 63.2852 129.703C63.2773 129.508 63.2695 129.301 63.2617 129.082C63.2539 128.871 63.2461 128.66 63.2383 128.449C63.2383 128.23 63.2383 128.035 63.2383 127.863V125.824C62.9883 125.832 62.7656 125.84 62.5703 125.848C62.375 125.855 62.2188 125.863 62.1016 125.871C61.8047 125.887 61.4844 125.91 61.1406 125.941C60.8047 125.973 60.5 126.008 60.2266 126.047L59.8281 125.027C60.1797 125.066 60.5547 125.102 60.9531 125.133C61.3594 125.156 61.7383 125.176 62.0898 125.191C62.2852 125.199 62.5312 125.203 62.8281 125.203C63.1328 125.203 63.4648 125.203 63.8242 125.203C64.1836 125.195 64.5547 125.188 64.9375 125.18C65.3281 125.164 65.6992 125.152 66.0508 125.145C66.4102 125.137 66.7383 125.129 67.0352 125.121C67.3398 125.105 67.5859 125.094 67.7734 125.086C68.2969 125.062 68.8281 125.027 69.3672 124.98C69.9141 124.934 70.3984 124.879 70.8203 124.816L70.6797 125.777C70.5234 125.77 70.3398 125.762 70.1289 125.754C69.9258 125.738 69.7031 125.73 69.4609 125.73C69.2188 125.723 68.9688 125.715 68.7109 125.707C68.4531 125.699 68.1953 125.695 67.9375 125.695H67.668V127.688ZM78.918 120.469C78.918 120.227 78.8047 120.031 78.5781 119.883C78.3594 119.727 77.9922 119.586 77.4766 119.461L77.6523 119.027C77.8477 119.051 78.0586 119.082 78.2852 119.121C78.5195 119.152 78.75 119.191 78.9766 119.238C79.2031 119.277 79.418 119.316 79.6211 119.355C79.8242 119.395 80 119.426 80.1484 119.449C80.1328 119.52 80.1172 119.605 80.1016 119.707C80.0859 119.809 80.0703 119.914 80.0547 120.023C80.0469 120.125 80.0391 120.219 80.0312 120.305C80.0234 120.391 80.0195 120.453 80.0195 120.492V123.773C80.3555 123.742 80.7383 123.703 81.168 123.656C81.6055 123.609 82.0039 123.555 82.3633 123.492L82.2344 124.441C82.0938 124.434 81.9297 124.43 81.7422 124.43C81.5625 124.43 81.3711 124.43 81.168 124.43C80.9727 124.43 80.7734 124.43 80.5703 124.43C80.3672 124.43 80.1836 124.43 80.0195 124.43V126.984C80.0195 127.227 80.0156 127.508 80.0078 127.828C80 128.141 79.9883 128.457 79.9727 128.777C79.957 129.09 79.9375 129.387 79.9141 129.668C79.8906 129.957 79.8633 130.188 79.832 130.359L79.0234 130.465C79.0078 130.34 78.9922 130.172 78.9766 129.961C78.9688 129.75 78.957 129.523 78.9414 129.281C78.9336 129.047 78.9258 128.805 78.918 128.555C78.918 128.297 78.918 128.055 78.918 127.828V125.391C78.5664 125.531 78.1719 125.676 77.7344 125.824C77.3047 125.965 76.8594 126.102 76.3984 126.234C75.9453 126.367 75.4961 126.488 75.0508 126.598C74.6133 126.699 74.2148 126.777 73.8555 126.832C73.4414 126.895 73.1445 126.848 72.9648 126.691C72.793 126.527 72.707 126.258 72.707 125.883V122.309C72.707 122.184 72.6914 122.082 72.6602 122.004C72.6367 121.918 72.582 121.844 72.4961 121.781C72.4102 121.719 72.2891 121.664 72.1328 121.617C71.9844 121.57 71.7812 121.523 71.5234 121.477L71.6758 121.043C72.0664 121.059 72.4648 121.094 72.8711 121.148C73.2852 121.195 73.6445 121.246 73.9492 121.301C73.9336 121.371 73.918 121.457 73.9023 121.559C73.8867 121.66 73.8711 121.762 73.8555 121.863C73.8477 121.965 73.8398 122.059 73.832 122.145C73.8242 122.23 73.8203 122.293 73.8203 122.332V125.637C73.8203 125.77 73.8398 125.863 73.8789 125.918C73.9258 125.965 73.9883 125.984 74.0664 125.977C74.332 125.961 74.6641 125.918 75.0625 125.848C75.4688 125.777 75.8984 125.691 76.3516 125.59C76.8047 125.488 77.2539 125.375 77.6992 125.25C78.1523 125.125 78.5586 125.004 78.918 124.887V120.469ZM91.082 121.676C90.7305 121.691 90.3711 121.723 90.0039 121.77C89.6445 121.809 89.3398 121.859 89.0898 121.922L88.6094 121.031C88.6875 121.047 88.7891 121.062 88.9141 121.078C89.0469 121.086 89.1875 121.098 89.3359 121.113C89.4844 121.121 89.6328 121.129 89.7812 121.137C89.9297 121.137 90.0625 121.137 90.1797 121.137C90.3047 121.129 90.4453 121.125 90.6016 121.125C90.7656 121.117 90.9258 121.113 91.082 121.113V120.469C91.082 120.227 90.9648 120.031 90.7305 119.883C90.5039 119.727 90.1328 119.586 89.6172 119.461L89.8281 119.027C90.0156 119.051 90.2227 119.082 90.4492 119.121C90.6758 119.152 90.9023 119.191 91.1289 119.238C91.3555 119.277 91.5703 119.316 91.7734 119.355C91.9844 119.395 92.168 119.426 92.3242 119.449C92.3086 119.52 92.293 119.605 92.2773 119.707C92.2617 119.809 92.2461 119.914 92.2305 120.023C92.2227 120.125 92.2148 120.219 92.207 120.305C92.1992 120.391 92.1953 120.453 92.1953 120.492V124.125C92.1953 124.266 92.1875 124.43 92.1719 124.617C92.1562 124.805 92.1367 124.992 92.1133 125.18C92.0977 125.367 92.0781 125.547 92.0547 125.719C92.0312 125.883 92.0078 126.016 91.9844 126.117L91.1875 126.234C91.1719 126.156 91.1562 126.055 91.1406 125.93C91.1328 125.805 91.1211 125.676 91.1055 125.543C91.0977 125.402 91.0898 125.266 91.082 125.133C91.082 125 91.082 124.879 91.082 124.77V124.219C90.7305 124.242 90.3594 124.277 89.9688 124.324C89.5859 124.363 89.2617 124.414 88.9961 124.477L88.7383 123.926C88.5195 124.254 88.2031 124.52 87.7891 124.723C87.375 124.918 86.9062 125.016 86.3828 125.016C85.9922 125.016 85.6289 124.961 85.293 124.852C84.9648 124.742 84.6797 124.59 84.4375 124.395C84.1953 124.199 84.0078 123.969 83.875 123.703C83.7422 123.438 83.6758 123.152 83.6758 122.848C83.6758 122.566 83.7344 122.301 83.8516 122.051C83.9688 121.801 84.1289 121.578 84.332 121.383C84.543 121.188 84.793 121.027 85.082 120.902C85.3711 120.777 85.6875 120.699 86.0312 120.668C86.0156 120.574 85.9727 120.5 85.9023 120.445C85.832 120.391 85.707 120.336 85.5273 120.281L85.7266 119.93C85.8125 119.945 85.9141 119.965 86.0312 119.988C86.1484 120.012 86.2656 120.035 86.3828 120.059C86.5078 120.082 86.6289 120.105 86.7461 120.129C86.8633 120.152 86.9688 120.176 87.0625 120.199C87.0391 120.27 87.0117 120.348 86.9805 120.434C86.9492 120.512 86.9258 120.598 86.9102 120.691C87.2305 120.738 87.5234 120.828 87.7891 120.961C88.0625 121.086 88.293 121.246 88.4805 121.441C88.6758 121.629 88.8242 121.844 88.9258 122.086C89.0352 122.328 89.0898 122.582 89.0898 122.848C89.0898 123.137 89.0312 123.391 88.9141 123.609C89.1016 123.633 89.3086 123.656 89.5352 123.68C89.7617 123.695 89.957 123.699 90.1211 123.691C90.2539 123.684 90.4062 123.68 90.5781 123.68C90.7578 123.672 90.9258 123.668 91.082 123.668V121.676ZM87.9414 122.801C87.9414 122.574 87.8984 122.363 87.8125 122.168C87.7344 121.973 87.625 121.805 87.4844 121.664C87.3438 121.516 87.1797 121.402 86.9922 121.324C86.8047 121.238 86.6055 121.195 86.3945 121.195C86.1758 121.195 85.9688 121.238 85.7734 121.324C85.5859 121.402 85.4219 121.516 85.2812 121.664C85.1406 121.805 85.0273 121.973 84.9414 122.168C84.8633 122.363 84.8242 122.574 84.8242 122.801C84.8242 123.027 84.8633 123.238 84.9414 123.434C85.0273 123.621 85.1406 123.785 85.2812 123.926C85.4219 124.059 85.5859 124.164 85.7734 124.242C85.9688 124.32 86.1758 124.359 86.3945 124.359C86.6133 124.359 86.8164 124.32 87.0039 124.242C87.1914 124.164 87.3555 124.059 87.4961 123.926C87.6367 123.785 87.7461 123.621 87.8242 123.434C87.9023 123.238 87.9414 123.027 87.9414 122.801ZM89.957 126.305C90.2617 126.344 90.543 126.426 90.8008 126.551C91.0586 126.668 91.2773 126.816 91.457 126.996C91.6367 127.168 91.7773 127.367 91.8789 127.594C91.9805 127.812 92.0312 128.051 92.0312 128.309C92.0312 128.598 91.9648 128.863 91.832 129.105C91.707 129.355 91.5273 129.57 91.293 129.75C91.0664 129.938 90.793 130.082 90.4727 130.184C90.1602 130.285 89.8203 130.336 89.4531 130.336C89.0781 130.336 88.7344 130.285 88.4219 130.184C88.1094 130.082 87.8398 129.938 87.6133 129.75C87.3867 129.57 87.207 129.355 87.0742 129.105C86.9492 128.863 86.8867 128.598 86.8867 128.309C86.8867 128.051 86.9375 127.809 87.0391 127.582C87.1484 127.348 87.3008 127.141 87.4961 126.961C87.6914 126.781 87.918 126.633 88.1758 126.516C88.4414 126.398 88.7344 126.324 89.0547 126.293C89.0469 126.191 89.0078 126.117 88.9375 126.07C88.875 126.016 88.7539 125.957 88.5742 125.895L88.7734 125.543C88.8516 125.559 88.9492 125.578 89.0664 125.602C89.1836 125.625 89.3008 125.648 89.418 125.672C89.543 125.695 89.6641 125.723 89.7812 125.754C89.9062 125.777 90.0156 125.801 90.1094 125.824C90.0703 125.918 90.0391 126 90.0156 126.07C89.9922 126.141 89.9727 126.219 89.957 126.305ZM90.8711 128.238C90.8711 128.035 90.832 127.848 90.7539 127.676C90.6758 127.496 90.5703 127.344 90.4375 127.219C90.3125 127.086 90.1641 126.984 89.9922 126.914C89.8203 126.836 89.6367 126.797 89.4414 126.797C89.2539 126.797 89.0703 126.836 88.8906 126.914C88.7188 126.984 88.5664 127.086 88.4336 127.219C88.3086 127.344 88.207 127.496 88.1289 127.676C88.0508 127.848 88.0117 128.035 88.0117 128.238C88.0117 128.441 88.0508 128.633 88.1289 128.812C88.207 128.984 88.3086 129.133 88.4336 129.258C88.5664 129.391 88.7188 129.492 88.8906 129.562C89.0703 129.641 89.2539 129.68 89.4414 129.68C89.6367 129.68 89.8203 129.641 89.9922 129.562C90.1719 129.492 90.3242 129.391 90.4492 129.258C90.582 129.133 90.6836 128.984 90.7539 128.812C90.832 128.633 90.8711 128.441 90.8711 128.238Z" fill="#D28BB3"/>
<path d="M31.9766 146.992C31.6953 147.43 31.3672 147.852 30.9922 148.258C30.625 148.656 30.2227 149.027 29.7852 149.371C29.3555 149.715 28.9023 150.031 28.4258 150.32C27.9492 150.602 27.4688 150.84 26.9844 151.035L26.6914 150.684C27.1758 150.457 27.6523 150.176 28.1211 149.84C28.5898 149.504 29.0234 149.133 29.4219 148.727C29.8281 148.32 30.1914 147.895 30.5117 147.449C30.832 146.996 31.082 146.539 31.2617 146.078C31.0898 146.078 30.9102 146.082 30.7227 146.09C30.543 146.09 30.3672 146.094 30.1953 146.102C30.0312 146.109 29.8789 146.117 29.7383 146.125C29.6055 146.133 29.5 146.141 29.4219 146.148C29.3438 146.156 29.2344 146.164 29.0938 146.172C28.9531 146.18 28.8047 146.195 28.6484 146.219C28.4922 146.234 28.332 146.254 28.168 146.277C28.0039 146.301 27.8594 146.328 27.7344 146.359L27.1016 145.41C27.1953 145.426 27.3203 145.441 27.4766 145.457C27.6406 145.473 27.8125 145.488 27.9922 145.504C28.1719 145.512 28.3516 145.52 28.5312 145.527C28.7109 145.535 28.8672 145.539 29 145.539C29.3203 145.539 29.6484 145.531 29.9844 145.516C30.3203 145.5 30.6367 145.48 30.9336 145.457C31.2383 145.426 31.5117 145.395 31.7539 145.363C31.9961 145.332 32.1875 145.297 32.3281 145.258L32.7383 145.527C32.6055 145.918 32.4258 146.281 32.1992 146.617C32.3789 146.633 32.5703 146.648 32.7734 146.664C32.9844 146.68 33.168 146.684 33.3242 146.676C33.5117 146.668 33.7188 146.66 33.9453 146.652C34.1719 146.645 34.3867 146.633 34.5898 146.617V145.469C34.5898 145.227 34.4727 145.031 34.2383 144.883C34.0117 144.727 33.6406 144.586 33.125 144.461L33.3359 144.027C33.5234 144.051 33.7305 144.082 33.957 144.121C34.1836 144.152 34.4102 144.191 34.6367 144.238C34.8633 144.277 35.0781 144.316 35.2812 144.355C35.4922 144.395 35.6758 144.426 35.832 144.449C35.8164 144.52 35.8008 144.605 35.7852 144.707C35.7695 144.809 35.7539 144.914 35.7383 145.023C35.7227 145.125 35.7109 145.219 35.7031 145.305C35.6953 145.391 35.6914 145.453 35.6914 145.492V148.152C35.6914 148.293 35.6836 148.457 35.668 148.645C35.6602 148.832 35.6445 149.023 35.6211 149.219C35.6055 149.406 35.5859 149.586 35.5625 149.758C35.5391 149.922 35.5156 150.051 35.4922 150.145L34.6836 150.273C34.668 150.141 34.6523 149.969 34.6367 149.758C34.6211 149.547 34.6055 149.34 34.5898 149.137C34.3555 149.145 34.1094 149.156 33.8516 149.172C33.5938 149.188 33.3359 149.207 33.0781 149.23C32.8203 149.246 32.5703 149.27 32.3281 149.301C32.0859 149.324 31.8594 149.352 31.6484 149.383L31.2617 148.48C31.3477 148.496 31.4531 148.512 31.5781 148.527C31.7109 148.543 31.8477 148.559 31.9883 148.574C32.1367 148.582 32.2812 148.59 32.4219 148.598C32.5703 148.598 32.7031 148.598 32.8203 148.598C33.0469 148.59 33.3242 148.586 33.6523 148.586C33.9883 148.578 34.3008 148.566 34.5898 148.551V147.203C34.1445 147.219 33.7148 147.25 33.3008 147.297C32.8945 147.336 32.5195 147.387 32.1758 147.449L31.9766 146.992ZM34.4141 151.082C34.2266 151.074 34 151.07 33.7344 151.07C33.4766 151.07 33.207 151.078 32.9258 151.094C32.6523 151.102 32.3789 151.113 32.1055 151.129C31.8398 151.137 31.6094 151.148 31.4141 151.164C31.3281 151.172 31.2148 151.184 31.0742 151.199C30.9414 151.207 30.793 151.219 30.6289 151.234C30.4648 151.25 30.2969 151.27 30.125 151.293C29.9609 151.316 29.8086 151.34 29.668 151.363L29.1172 150.426C29.2109 150.441 29.332 150.461 29.4805 150.484C29.6367 150.5 29.7969 150.516 29.9609 150.531C30.1328 150.547 30.3008 150.562 30.4648 150.578C30.6367 150.586 30.7852 150.59 30.9102 150.59C31.207 150.59 31.5508 150.59 31.9414 150.59C32.3398 150.59 32.7539 150.586 33.1836 150.578C33.6133 150.562 34.0469 150.543 34.4844 150.52C34.9219 150.496 35.3281 150.469 35.7031 150.438C35.6797 150.547 35.6562 150.656 35.6328 150.766C35.6172 150.859 35.5977 150.957 35.5742 151.059C35.5586 151.16 35.543 151.246 35.5273 151.316L35.375 152.312C35.4375 152.305 35.4922 152.301 35.5391 152.301C35.5859 152.301 35.6328 152.297 35.6797 152.289L35.5977 153.027C35.1523 153.004 34.6953 152.992 34.2266 152.992C33.7656 152.992 33.3242 152.996 32.9023 153.004C32.4805 153.012 32.0977 153.023 31.7539 153.039C31.418 153.047 31.1523 153.055 30.957 153.062C30.9492 153.125 30.9453 153.191 30.9453 153.262C30.9453 153.324 30.9453 153.387 30.9453 153.449V154.223C30.9453 154.34 30.9609 154.41 30.9922 154.434C31.0312 154.465 31.125 154.484 31.2734 154.492C31.5547 154.5 31.9102 154.496 32.3398 154.48C32.7695 154.473 33.2148 154.453 33.6758 154.422C34.1445 154.391 34.6016 154.352 35.0469 154.305C35.5 154.258 35.8867 154.207 36.207 154.152L36.0312 155.09C35.6094 155.074 35.1523 155.062 34.6602 155.055C34.168 155.055 33.6797 155.059 33.1953 155.066C32.7109 155.074 32.2422 155.082 31.7891 155.09C31.3359 155.105 30.9336 155.121 30.582 155.137C30.3164 155.152 30.1289 155.098 30.0195 154.973C29.9102 154.848 29.8555 154.684 29.8555 154.48V153.625C29.8555 153.484 29.8438 153.371 29.8203 153.285C29.8047 153.191 29.7656 153.113 29.7031 153.051C29.6484 152.98 29.5625 152.922 29.4453 152.875C29.3359 152.828 29.1914 152.773 29.0117 152.711L29.1758 152.359C29.582 152.398 30.0078 152.426 30.4531 152.441C30.8984 152.457 31.3477 152.465 31.8008 152.465C32.2539 152.465 32.6992 152.461 33.1367 152.453C33.5742 152.438 33.9883 152.418 34.3789 152.395L34.4141 151.082ZM43.7422 151.012C44.1484 150.996 44.5195 150.984 44.8555 150.977C45.1914 150.961 45.4609 150.949 45.6641 150.941C46.1875 150.918 46.7188 150.883 47.2578 150.836C47.7969 150.781 48.2812 150.723 48.7109 150.66L48.5586 151.621C48.4023 151.613 48.2188 151.605 48.0078 151.598C47.8047 151.59 47.582 151.586 47.3398 151.586C47.0977 151.578 46.8477 151.57 46.5898 151.562C46.332 151.555 46.0742 151.551 45.8164 151.551C45.5977 151.551 45.3203 151.555 44.9844 151.562C44.6484 151.562 44.2812 151.566 43.8828 151.574C43.4922 151.582 43.0898 151.594 42.6758 151.609C42.2617 151.617 41.8672 151.629 41.4922 151.645C41.125 151.66 40.793 151.676 40.4961 151.691C40.1992 151.699 39.9727 151.707 39.8164 151.715C39.5273 151.738 39.2109 151.766 38.8672 151.797C38.5234 151.828 38.2148 151.863 37.9414 151.902L37.543 150.883C37.8945 150.922 38.2695 150.957 38.668 150.988C39.0742 151.012 39.4531 151.031 39.8047 151.047C39.9453 151.055 40.1172 151.059 40.3203 151.059C40.5312 151.059 40.7617 151.059 41.0117 151.059C41.2617 151.059 41.5273 151.059 41.8086 151.059C42.0898 151.051 42.375 151.043 42.6641 151.035V150.238C42.3672 150.199 42.0898 150.125 41.832 150.016C41.582 149.898 41.3633 149.762 41.1758 149.605C40.9883 149.441 40.8398 149.262 40.7305 149.066C40.6289 148.863 40.5781 148.652 40.5781 148.434C40.5781 148.16 40.6445 147.914 40.7773 147.695C40.9102 147.469 41.0898 147.277 41.3164 147.121C41.5508 146.957 41.8242 146.832 42.1367 146.746C42.4492 146.652 42.7852 146.605 43.1445 146.605C43.5273 146.605 43.8789 146.656 44.1992 146.758C44.5195 146.859 44.7891 146.996 45.0078 147.168C45.2344 147.332 45.4102 147.527 45.5352 147.754C45.6602 147.973 45.7227 148.199 45.7227 148.434C45.7227 148.652 45.6719 148.859 45.5703 149.055C45.4766 149.25 45.3398 149.43 45.1602 149.594C44.9883 149.75 44.7812 149.883 44.5391 149.992C44.2969 150.102 44.0312 150.18 43.7422 150.227V151.012ZM41.7969 148.41C41.7969 148.574 41.832 148.73 41.9023 148.879C41.9805 149.02 42.082 149.148 42.207 149.266C42.332 149.375 42.4766 149.461 42.6406 149.523C42.8047 149.586 42.9805 149.617 43.168 149.617C43.3555 149.617 43.5312 149.586 43.6953 149.523C43.8672 149.461 44.0117 149.379 44.1289 149.277C44.2539 149.168 44.3516 149.039 44.4219 148.891C44.4922 148.742 44.5273 148.582 44.5273 148.41C44.5273 148.066 44.4023 147.773 44.1523 147.531C43.9102 147.281 43.582 147.156 43.168 147.156C42.9805 147.156 42.8008 147.188 42.6289 147.25C42.4648 147.305 42.3203 147.387 42.1953 147.496C42.0781 147.605 41.9805 147.738 41.9023 147.895C41.832 148.043 41.7969 148.215 41.7969 148.41ZM44.8438 145.082C44.7109 145.082 44.5469 145.082 44.3516 145.082C44.1641 145.082 43.9727 145.086 43.7773 145.094C43.582 145.102 43.3984 145.109 43.2266 145.117C43.0547 145.117 42.918 145.117 42.8164 145.117C42.7617 145.117 42.6758 145.121 42.5586 145.129C42.4492 145.129 42.3281 145.133 42.1953 145.141C42.0703 145.148 41.9414 145.16 41.8086 145.176C41.6758 145.184 41.5625 145.195 41.4688 145.211L40.9883 144.344C41.082 144.359 41.2031 144.379 41.3516 144.402C41.5 144.418 41.6523 144.434 41.8086 144.449C41.9727 144.465 42.1289 144.48 42.2773 144.496C42.4336 144.504 42.5625 144.508 42.6641 144.508C42.75 144.508 42.8867 144.504 43.0742 144.496C43.2695 144.488 43.4805 144.477 43.707 144.461C43.9336 144.445 44.1641 144.43 44.3984 144.414C44.6406 144.391 44.8516 144.367 45.0312 144.344L44.8438 145.082ZM47.082 146.219C46.8711 146.211 46.5938 146.207 46.25 146.207C45.9141 146.199 45.5469 146.199 45.1484 146.207C44.75 146.215 44.3359 146.227 43.9062 146.242C43.4844 146.25 43.082 146.262 42.6992 146.277C42.3242 146.293 41.9883 146.309 41.6914 146.324C41.4023 146.332 41.1875 146.34 41.0469 146.348C40.9531 146.348 40.8281 146.355 40.6719 146.371C40.5156 146.379 40.3516 146.391 40.1797 146.406C40.0078 146.422 39.8398 146.438 39.6758 146.453C39.5195 146.469 39.3906 146.484 39.2891 146.5L38.8789 145.551C38.9883 145.574 39.1289 145.598 39.3008 145.621C39.4727 145.637 39.6484 145.652 39.8281 145.668C40.0156 145.684 40.1953 145.699 40.3672 145.715C40.5391 145.723 40.6836 145.727 40.8008 145.727C40.9805 145.727 41.2227 145.723 41.5273 145.715C41.8398 145.707 42.1836 145.695 42.5586 145.68C42.9414 145.664 43.3438 145.648 43.7656 145.633C44.1953 145.609 44.6211 145.586 45.043 145.562C45.4648 145.531 45.8711 145.504 46.2617 145.48C46.6602 145.449 47.0156 145.414 47.3281 145.375L47.082 146.219ZM47.1289 154.984C46.6445 154.961 46.1211 154.941 45.5586 154.926C45.0039 154.918 44.4531 154.918 43.9062 154.926C43.3594 154.934 42.8398 154.941 42.3477 154.949C41.8555 154.965 41.4336 154.984 41.082 155.008C40.8008 155.023 40.6016 154.969 40.4844 154.844C40.375 154.719 40.3203 154.57 40.3203 154.398V153.613C40.3203 153.441 40.3125 153.305 40.2969 153.203C40.2812 153.094 40.2383 153.004 40.168 152.934C40.0977 152.863 39.9922 152.805 39.8516 152.758C39.7188 152.711 39.5312 152.656 39.2891 152.594L39.4766 152.16C39.5938 152.176 39.7422 152.195 39.9219 152.219C40.1016 152.242 40.2852 152.266 40.4727 152.289C40.668 152.312 40.8555 152.34 41.0352 152.371C41.2227 152.395 41.375 152.414 41.4922 152.43C41.4766 152.523 41.4609 152.664 41.4453 152.852C41.4297 153.031 41.4219 153.195 41.4219 153.344V154.023C41.4219 154.172 41.4453 154.262 41.4922 154.293C41.5391 154.332 41.6445 154.355 41.8086 154.363C42.0039 154.371 42.2422 154.371 42.5234 154.363C42.8125 154.363 43.1211 154.355 43.4492 154.34C43.7852 154.332 44.1289 154.316 44.4805 154.293C44.8398 154.277 45.1875 154.258 45.5234 154.234C45.8672 154.211 46.1914 154.184 46.4961 154.152C46.8008 154.129 47.0664 154.098 47.293 154.059L47.1289 154.984ZM57.9336 148.094C58.2695 148.07 58.6484 148.035 59.0703 147.988C59.4922 147.941 59.8789 147.891 60.2305 147.836L60.1133 148.762C59.9805 148.754 59.8203 148.75 59.6328 148.75C59.4531 148.742 59.2656 148.738 59.0703 148.738C58.875 148.738 58.6758 148.738 58.4727 148.738C58.2773 148.738 58.0938 148.738 57.9219 148.738C57.9219 148.879 57.9141 149.039 57.8984 149.219C57.8906 149.391 57.875 149.562 57.8516 149.734C57.8359 149.906 57.8203 150.066 57.8047 150.215C57.7891 150.363 57.7734 150.48 57.7578 150.566L56.9258 150.684C56.9102 150.605 56.8984 150.504 56.8906 150.379C56.8828 150.254 56.8711 150.125 56.8555 149.992C56.8477 149.852 56.8398 149.715 56.832 149.582C56.832 149.441 56.832 149.316 56.832 149.207V145.469C56.832 145.227 56.7188 145.031 56.4922 144.883C56.2734 144.727 55.9062 144.586 55.3906 144.461L55.5781 144.027C55.7734 144.051 55.9844 144.082 56.2109 144.121C56.4375 144.152 56.6641 144.191 56.8906 144.238C57.1172 144.277 57.332 144.316 57.5352 144.355C57.7461 144.395 57.9258 144.426 58.0742 144.449C58.0586 144.52 58.0391 144.605 58.0156 144.707C58 144.809 57.9844 144.914 57.9688 145.023C57.9609 145.125 57.9531 145.219 57.9453 145.305C57.9375 145.391 57.9336 145.453 57.9336 145.492V148.094ZM56.0469 146.688C55.8672 146.688 55.6484 146.688 55.3906 146.688C55.1328 146.688 54.8516 146.691 54.5469 146.699C54.25 146.699 53.9414 146.703 53.6211 146.711C53.3008 146.719 52.9922 146.727 52.6953 146.734C52.3984 146.742 52.125 146.754 51.875 146.77C51.625 146.777 51.418 146.785 51.2539 146.793C51.1602 146.801 51.0352 146.812 50.8789 146.828C50.7305 146.836 50.5742 146.848 50.4102 146.863C50.2461 146.879 50.0898 146.895 49.9414 146.91C49.793 146.926 49.6719 146.941 49.5781 146.957L49.1328 145.996C49.2344 146.02 49.3633 146.043 49.5195 146.066C49.6758 146.082 49.8359 146.098 50 146.113C50.1641 146.129 50.3242 146.145 50.4805 146.16C50.6367 146.168 50.7695 146.172 50.8789 146.172C51.1445 146.172 51.4961 146.168 51.9336 146.16C52.3789 146.145 52.8516 146.125 53.3516 146.102C53.8594 146.07 54.3633 146.035 54.8633 145.996C55.3711 145.949 55.8164 145.891 56.1992 145.82L56.0469 146.688ZM54.3125 145.457C54.1797 145.457 54.0352 145.457 53.8789 145.457C53.7227 145.457 53.5664 145.461 53.4102 145.469C53.2539 145.469 53.1016 145.473 52.9531 145.48C52.8125 145.48 52.6914 145.48 52.5898 145.48C52.5352 145.48 52.457 145.484 52.3555 145.492C52.2539 145.492 52.1406 145.5 52.0156 145.516C51.8906 145.523 51.7656 145.535 51.6406 145.551C51.5156 145.559 51.4023 145.566 51.3008 145.574L50.8203 144.684C50.9141 144.707 51.0312 144.73 51.1719 144.754C51.3125 144.777 51.457 144.801 51.6055 144.824C51.7617 144.84 51.9102 144.855 52.0508 144.871C52.1992 144.879 52.3242 144.883 52.4258 144.883C52.5195 144.883 52.6484 144.879 52.8125 144.871C52.9766 144.863 53.1523 144.852 53.3398 144.836C53.5352 144.812 53.7305 144.789 53.9258 144.766C54.1289 144.742 54.3203 144.719 54.5 144.695L54.3125 145.457ZM55.2266 148.961C55.2266 149.219 55.1641 149.461 55.0391 149.688C54.9141 149.906 54.7383 150.102 54.5117 150.273C54.293 150.445 54.0352 150.582 53.7383 150.684C53.4414 150.777 53.1172 150.824 52.7656 150.824C52.4219 150.824 52.1016 150.773 51.8047 150.672C51.5078 150.57 51.2461 150.438 51.0195 150.273C50.8008 150.102 50.6289 149.902 50.5039 149.676C50.3789 149.449 50.3164 149.211 50.3164 148.961C50.3164 148.688 50.3789 148.438 50.5039 148.211C50.6289 147.977 50.8008 147.777 51.0195 147.613C51.2461 147.441 51.5078 147.309 51.8047 147.215C52.1016 147.121 52.4219 147.074 52.7656 147.074C53.125 147.074 53.457 147.125 53.7617 147.227C54.0664 147.328 54.3242 147.469 54.5352 147.648C54.7539 147.82 54.9219 148.02 55.0391 148.246C55.1641 148.473 55.2266 148.711 55.2266 148.961ZM51.4883 148.902C51.4883 149.082 51.5195 149.25 51.582 149.406C51.6523 149.562 51.7461 149.703 51.8633 149.828C51.9805 149.945 52.1172 150.039 52.2734 150.109C52.4297 150.18 52.5977 150.215 52.7773 150.215C52.9492 150.215 53.1133 150.184 53.2695 150.121C53.4258 150.051 53.5625 149.957 53.6797 149.84C53.7969 149.723 53.8906 149.586 53.9609 149.43C54.0312 149.266 54.0664 149.09 54.0664 148.902C54.0664 148.73 54.0312 148.566 53.9609 148.41C53.8984 148.246 53.8086 148.105 53.6914 147.988C53.5742 147.871 53.4375 147.777 53.2812 147.707C53.125 147.637 52.957 147.602 52.7773 147.602C52.418 147.602 52.1133 147.719 51.8633 147.953C51.6133 148.188 51.4883 148.504 51.4883 148.902ZM56.8438 154.762C56.3047 154.738 55.7383 154.738 55.1445 154.762C54.5586 154.785 53.957 154.809 53.3398 154.832C53.3242 154.902 53.3086 154.969 53.293 155.031C53.2852 155.102 53.2734 155.164 53.2578 155.219L52.4961 155.348C52.4727 155.191 52.4492 154.996 52.4258 154.762C52.4023 154.535 52.3906 154.312 52.3906 154.094V152.348C52.3906 152.223 52.3789 152.117 52.3555 152.031C52.332 151.938 52.2852 151.859 52.2148 151.797C52.1523 151.727 52.0586 151.668 51.9336 151.621C51.8086 151.574 51.6445 151.527 51.4414 151.48L51.6406 151.082C51.7656 151.098 51.9102 151.113 52.0742 151.129C52.2383 151.145 52.4062 151.168 52.5781 151.199C52.7578 151.223 52.9336 151.25 53.1055 151.281C53.2852 151.312 53.4492 151.344 53.5977 151.375C53.582 151.445 53.5625 151.527 53.5391 151.621C53.5234 151.707 53.5078 151.797 53.4922 151.891C53.4844 151.977 53.4766 152.062 53.4688 152.148C53.4609 152.227 53.457 152.289 53.457 152.336C53.9961 152.32 54.5469 152.301 55.1094 152.277C55.6719 152.254 56.2344 152.215 56.7969 152.16V151.973C56.7969 151.848 56.7812 151.746 56.75 151.668C56.7188 151.582 56.6641 151.508 56.5859 151.445C56.5078 151.375 56.3984 151.316 56.2578 151.27C56.125 151.215 55.9531 151.16 55.7422 151.105L55.918 150.672C56.2461 150.711 56.6016 150.758 56.9844 150.812C57.3672 150.867 57.707 150.926 58.0039 150.988C57.9883 151.059 57.9727 151.141 57.957 151.234C57.9414 151.328 57.9258 151.422 57.9102 151.516C57.9023 151.609 57.8945 151.695 57.8867 151.773C57.8789 151.852 57.875 151.914 57.875 151.961V153.438C57.875 153.789 57.8555 154.105 57.8164 154.387C57.7773 154.676 57.7383 154.91 57.6992 155.09L56.9023 155.207C56.8867 155.145 56.875 155.074 56.8672 154.996C56.8672 154.926 56.8594 154.848 56.8438 154.762ZM56.7969 153.941V152.875C56.2578 152.859 55.707 152.855 55.1445 152.863C54.5898 152.871 54.0273 152.895 53.457 152.934V153.59C53.457 153.816 53.4453 154.023 53.4219 154.211C53.9609 154.195 54.5195 154.176 55.0977 154.152C55.6836 154.137 56.25 154.109 56.7969 154.07V153.941ZM68.6211 145.469C68.6211 145.227 68.5039 145.031 68.2695 144.883C68.043 144.727 67.6719 144.586 67.1562 144.461L67.3555 144.027C67.543 144.051 67.75 144.082 67.9766 144.121C68.2031 144.152 68.4297 144.191 68.6562 144.238C68.8828 144.277 69.0977 144.316 69.3008 144.355C69.5117 144.395 69.6953 144.426 69.8516 144.449C69.8359 144.52 69.8203 144.605 69.8047 144.707C69.7891 144.809 69.7734 144.914 69.7578 145.023C69.75 145.125 69.7422 145.219 69.7344 145.305C69.7266 145.391 69.7227 145.453 69.7227 145.492V151.984C69.7227 152.227 69.7148 152.508 69.6992 152.828C69.6914 153.141 69.6758 153.457 69.6523 153.777C69.6367 154.09 69.6172 154.387 69.5938 154.668C69.5703 154.957 69.543 155.188 69.5117 155.359L68.7266 155.465C68.7109 155.34 68.6953 155.172 68.6797 154.961C68.6719 154.75 68.6602 154.523 68.6445 154.281C68.6367 154.047 68.6289 153.805 68.6211 153.555C68.6211 153.297 68.6211 153.055 68.6211 152.828V150.391C68.2695 150.531 67.8633 150.676 67.4023 150.824C66.9414 150.965 66.4727 151.102 65.9961 151.234C65.5195 151.367 65.0508 151.488 64.5898 151.598C64.1289 151.699 63.7227 151.777 63.3711 151.832C62.9727 151.895 62.6836 151.848 62.5039 151.691C62.3242 151.527 62.2344 151.258 62.2344 150.883V147.309C62.2344 147.184 62.2188 147.082 62.1875 147.004C62.1641 146.918 62.1094 146.844 62.0234 146.781C61.9453 146.719 61.8281 146.664 61.6719 146.617C61.5156 146.57 61.3086 146.523 61.0508 146.477L61.2148 146.043C61.6133 146.059 62.0156 146.094 62.4219 146.148C62.8281 146.195 63.1797 146.246 63.4766 146.301C63.4609 146.371 63.4414 146.457 63.418 146.559C63.4023 146.66 63.3867 146.762 63.3711 146.863C63.3633 146.965 63.3555 147.059 63.3477 147.145C63.3398 147.23 63.3359 147.293 63.3359 147.332V150.637C63.3359 150.77 63.3594 150.863 63.4062 150.918C63.4531 150.965 63.5234 150.984 63.6172 150.977C63.8828 150.961 64.2266 150.918 64.6484 150.848C65.0703 150.777 65.5117 150.691 65.9727 150.59C66.4414 150.48 66.9062 150.367 67.3672 150.25C67.8359 150.125 68.2539 150 68.6211 149.875V145.469ZM79.4961 145.469C79.4961 145.227 79.3828 145.031 79.1562 144.883C78.9375 144.727 78.5703 144.586 78.0547 144.461L78.2305 144.027C78.4258 144.051 78.6367 144.082 78.8633 144.121C79.0977 144.152 79.3281 144.191 79.5547 144.238C79.7812 144.277 79.9961 144.316 80.1992 144.355C80.4023 144.395 80.5781 144.426 80.7266 144.449C80.7109 144.52 80.6953 144.605 80.6797 144.707C80.6641 144.809 80.6484 144.914 80.6328 145.023C80.625 145.125 80.6172 145.219 80.6094 145.305C80.6016 145.391 80.5977 145.453 80.5977 145.492V148.738C80.9336 148.715 81.3203 148.68 81.7578 148.633C82.1953 148.586 82.5938 148.531 82.9531 148.469L82.8242 149.418C82.6836 149.41 82.5195 149.406 82.332 149.406C82.1445 149.406 81.9492 149.406 81.7461 149.406C81.5508 149.406 81.3516 149.406 81.1484 149.406C80.9453 149.406 80.7617 149.406 80.5977 149.406V151.984C80.5977 152.227 80.5938 152.508 80.5859 152.828C80.5781 153.141 80.5664 153.457 80.5508 153.777C80.5352 154.09 80.5156 154.387 80.4922 154.668C80.4688 154.957 80.4414 155.188 80.4102 155.359L79.6016 155.465C79.5859 155.34 79.5703 155.172 79.5547 154.961C79.5469 154.75 79.5352 154.523 79.5195 154.281C79.5117 154.047 79.5039 153.805 79.4961 153.555C79.4961 153.297 79.4961 153.055 79.4961 152.828V150.59C79.1367 150.73 78.7305 150.875 78.2773 151.023C77.832 151.172 77.375 151.312 76.9062 151.445C76.4375 151.578 75.9805 151.699 75.5352 151.809C75.0898 151.91 74.6914 151.984 74.3398 152.031C73.9336 152.094 73.6406 152.047 73.4609 151.891C73.2891 151.727 73.2031 151.457 73.2031 151.082V147.672C73.2031 147.531 73.1914 147.41 73.168 147.309C73.1445 147.199 73.0938 147.109 73.0156 147.039C72.9453 146.961 72.8398 146.895 72.6992 146.84C72.5664 146.777 72.3906 146.715 72.1719 146.652L72.3477 146.219C72.793 146.289 73.2656 146.336 73.7656 146.359C74.2734 146.375 74.7812 146.375 75.2891 146.359C75.7969 146.336 76.2891 146.301 76.7656 146.254C77.25 146.199 77.6914 146.137 78.0898 146.066L77.9141 146.969C77.1797 146.938 76.5078 146.93 75.8984 146.945C75.2969 146.961 74.7656 146.988 74.3047 147.027V150.848C74.3047 150.98 74.3281 151.07 74.375 151.117C74.4297 151.164 74.5 151.184 74.5859 151.176C74.8516 151.16 75.1875 151.117 75.5938 151.047C76.0078 150.969 76.4414 150.879 76.8945 150.777C77.3555 150.676 77.8125 150.566 78.2656 150.449C78.7266 150.324 79.1367 150.203 79.4961 150.086V145.469ZM84.5586 152.863C84.7852 152.863 84.9766 152.941 85.1328 153.098C85.2969 153.254 85.3789 153.445 85.3789 153.672C85.3789 153.898 85.2969 154.09 85.1328 154.246C84.9766 154.41 84.7852 154.492 84.5586 154.492C84.332 154.492 84.1367 154.41 83.9727 154.246C83.8164 154.09 83.7383 153.898 83.7383 153.672C83.7383 153.445 83.8164 153.254 83.9727 153.098C84.1367 152.941 84.332 152.863 84.5586 152.863Z" fill="#D28BB3"/>
</svg>
