<svg width="114" height="231" viewBox="0 0 114 231" fill="none" xmlns="http://www.w3.org/2000/svg">
<rect width="114" height="231" fill="#EEEEEE"/>
<path d="M14.3516 89.0117C14.4375 88.9961 14.5156 88.9883 14.5859 88.9883C14.6562 88.9805 14.7266 88.9727 14.7969 88.9648L14.5859 89.8203C14.3047 89.7969 13.9727 89.7812 13.5898 89.7734C13.2148 89.7656 12.8203 89.7578 12.4062 89.75C12 89.75 11.5938 89.7539 11.1875 89.7617C10.7812 89.7695 10.4102 89.7812 10.0742 89.7969C10.0586 89.8594 10.043 89.9258 10.0273 89.9961C10.0195 90.0742 10.0078 90.1523 9.99219 90.2305L9.23047 90.3594C9.20703 90.2031 9.17969 90.0078 9.14844 89.7734C9.125 89.5469 9.10547 89.332 9.08984 89.1289L8.94922 86.9844C8.94141 86.8438 8.92578 86.7344 8.90234 86.6562C8.88672 86.5703 8.84766 86.5 8.78516 86.4453C8.73047 86.3906 8.64844 86.3438 8.53906 86.3047C8.4375 86.2578 8.29688 86.2109 8.11719 86.1641L8.32812 85.7305C9.35938 85.8633 10.4102 85.918 11.4805 85.8945C12.5586 85.8633 13.6211 85.8008 14.668 85.707C14.6367 85.9102 14.6055 86.1523 14.5742 86.4336C14.5508 86.7148 14.5234 87.0078 14.4922 87.3125C14.4609 87.6172 14.4336 87.918 14.4102 88.2148C14.3867 88.5117 14.3672 88.7773 14.3516 89.0117ZM13.4258 86.4805C13.1836 86.4727 12.9102 86.4688 12.6055 86.4688C12.3086 86.4609 12.0078 86.4609 11.7031 86.4688C11.3984 86.4766 11.1016 86.4883 10.8125 86.5039C10.5234 86.5117 10.2734 86.5195 10.0625 86.5273L10.1094 88.918V89.1875C10.625 89.1797 11.1719 89.1641 11.75 89.1406C12.3281 89.125 12.875 89.1055 13.3906 89.082L13.4258 86.4805ZM12.3008 79.0273C12.4883 79.0508 12.6953 79.082 12.9219 79.1211C13.1484 79.1523 13.375 79.1914 13.6016 79.2383C13.8281 79.2773 14.043 79.3164 14.2461 79.3555C14.457 79.3945 14.6406 79.4258 14.7969 79.4492C14.7812 79.5195 14.7617 79.6055 14.7383 79.707C14.7227 79.8086 14.707 79.9141 14.6914 80.0234C14.6836 80.125 14.6758 80.2188 14.668 80.3047C14.6602 80.3906 14.6562 80.4531 14.6562 80.4922V83.4688C14.6562 83.6094 14.6484 83.7734 14.6328 83.9609C14.625 84.1484 14.6094 84.3359 14.5859 84.5234C14.5703 84.7109 14.5508 84.8906 14.5273 85.0625C14.5039 85.2266 14.4805 85.3555 14.457 85.4492L13.6484 85.5664C13.6328 85.4883 13.6211 85.3867 13.6133 85.2617C13.6055 85.1367 13.5938 85.0078 13.5781 84.875C13.5703 84.7344 13.5625 84.5977 13.5547 84.4648C13.5547 84.3242 13.5547 84.1992 13.5547 84.0898V80.4688C13.5547 80.2266 13.4375 80.0312 13.2031 79.8828C12.9766 79.7266 12.6055 79.5859 12.0898 79.4609L12.3008 79.0273ZM11.8203 80.5977C11.6328 81.1836 11.3398 81.7617 10.9414 82.332C10.5508 82.9023 10.0938 83.4414 9.57031 83.9492C9.05469 84.457 8.48828 84.918 7.87109 85.332C7.26172 85.7461 6.64453 86.0938 6.01953 86.375L5.72656 86.0117C6.21875 85.7539 6.69922 85.4414 7.16797 85.0742C7.64453 84.707 8.08594 84.3125 8.49219 83.8906C8.90625 83.4688 9.27344 83.0273 9.59375 82.5664C9.91406 82.0977 10.1641 81.6328 10.3438 81.1719C10.1719 81.1719 9.99219 81.1758 9.80469 81.1836C9.61719 81.1836 9.43359 81.1875 9.25391 81.1953C9.08203 81.2031 8.92578 81.2109 8.78516 81.2188C8.64453 81.2266 8.53516 81.2344 8.45703 81.2422C8.37891 81.25 8.26953 81.2617 8.12891 81.2773C7.99609 81.2852 7.84766 81.3008 7.68359 81.3242C7.52734 81.3398 7.36719 81.3594 7.20312 81.3828C7.04688 81.3984 6.90625 81.4219 6.78125 81.4531L6.16016 80.5156C6.23828 80.5312 6.35547 80.5469 6.51172 80.5625C6.66797 80.5703 6.83594 80.582 7.01562 80.5977C7.20312 80.6055 7.38672 80.6133 7.56641 80.6211C7.74609 80.6289 7.90234 80.6328 8.03516 80.6328C8.35547 80.6328 8.68359 80.625 9.01953 80.6094C9.36328 80.5938 9.6875 80.5742 9.99219 80.5508C10.3047 80.5273 10.582 80.5 10.8242 80.4688C11.0742 80.4297 11.2695 80.3906 11.4102 80.3516L11.8203 80.5977ZM20.6094 85.2617C21.3203 85.1992 22 85.125 22.6484 85.0391C23.2969 84.9531 23.9141 84.8477 24.5 84.7227V80.4688C24.5 80.2266 24.3867 80.0312 24.1602 79.8828C23.9336 79.7266 23.5586 79.5859 23.0352 79.4609L23.2461 79.0273C23.4414 79.0508 23.6523 79.082 23.8789 79.1211C24.1055 79.1523 24.332 79.1914 24.5586 79.2383C24.7852 79.2773 25 79.3164 25.2031 79.3555C25.4141 79.3945 25.5938 79.4258 25.7422 79.4492C25.7266 79.5195 25.7109 79.6055 25.6953 79.707C25.6797 79.8086 25.6641 79.9141 25.6484 80.0234C25.6328 80.125 25.6211 80.2188 25.6133 80.3047C25.6055 80.3906 25.6016 80.4531 25.6016 80.4922V83.5625C25.7656 83.5547 25.9453 83.543 26.1406 83.5273C26.3438 83.5039 26.5469 83.4805 26.75 83.457C26.9531 83.4336 27.1523 83.4102 27.3477 83.3867C27.543 83.3555 27.7266 83.3242 27.8984 83.293L27.7695 84.207C27.6367 84.1992 27.4805 84.1953 27.3008 84.1953C27.1211 84.1953 26.9336 84.1953 26.7383 84.1953C26.543 84.1953 26.3438 84.1953 26.1406 84.1953C25.9453 84.1953 25.7656 84.1953 25.6016 84.1953V85.332C25.6016 85.5117 25.5938 85.7031 25.5781 85.9062C25.5703 86.1094 25.5586 86.3164 25.543 86.5273C25.5273 86.7305 25.5039 86.9258 25.4727 87.1133C25.4492 87.293 25.4258 87.4492 25.4023 87.582L24.5938 87.7109C24.5781 87.6172 24.5664 87.4883 24.5586 87.3242C24.5508 87.1602 24.5391 86.9844 24.5234 86.7969C24.5156 86.6016 24.5078 86.4102 24.5 86.2227C24.5 86.0273 24.5 85.8594 24.5 85.7188V85.2383C24.0234 85.332 23.5391 85.4219 23.0469 85.5078C22.5547 85.5938 22.0664 85.6719 21.582 85.7422C21.1055 85.8047 20.6445 85.8633 20.1992 85.918C19.7617 85.9648 19.3594 86.0039 18.9922 86.0352C18.9062 86.043 18.7852 86.0547 18.6289 86.0703C18.4727 86.0781 18.3047 86.0938 18.125 86.1172C17.9531 86.1328 17.7773 86.1523 17.5977 86.1758C17.4258 86.1914 17.2734 86.2109 17.1406 86.2344L16.5664 85.2734C16.6914 85.2891 16.8398 85.3047 17.0117 85.3203C17.1836 85.3359 17.3594 85.3516 17.5391 85.3672C17.7188 85.375 17.8867 85.3828 18.043 85.3906C18.207 85.3906 18.3438 85.3906 18.4531 85.3906C18.6328 85.3828 18.8125 85.375 18.9922 85.3672C19.1719 85.3594 19.3477 85.3516 19.5195 85.3438V83.7031C19.5195 83.5781 19.5117 83.4727 19.4961 83.3867C19.4805 83.3008 19.4414 83.2305 19.3789 83.1758C19.3164 83.1133 19.2227 83.0625 19.0977 83.0234C18.9805 82.9766 18.8203 82.9336 18.6172 82.8945L18.793 82.4844C18.9258 82.4922 19.0703 82.5039 19.2266 82.5195C19.3906 82.5352 19.5586 82.5547 19.7305 82.5781C19.9023 82.5938 20.0742 82.6133 20.2461 82.6367C20.418 82.6602 20.5781 82.6875 20.7266 82.7188C20.7109 82.7891 20.6953 82.8711 20.6797 82.9648C20.6719 83.0586 20.6602 83.1523 20.6445 83.2461C20.6367 83.3398 20.6289 83.4258 20.6211 83.5039C20.6133 83.582 20.6094 83.6445 20.6094 83.6914V85.2617ZM21.7812 84.3594C21.8203 84.1484 21.8594 83.9062 21.8984 83.6328C21.9375 83.3594 21.9727 83.0742 22.0039 82.7773C22.0352 82.4805 22.0625 82.1914 22.0859 81.9102C22.1094 81.6211 22.1211 81.3594 22.1211 81.125C21.6523 81.125 21.2109 81.1328 20.7969 81.1484C20.3828 81.1641 19.9375 81.1914 19.4609 81.2305C19.2266 81.2539 18.957 81.2812 18.6523 81.3125C18.3555 81.3438 18.0625 81.3867 17.7734 81.4414L17.2461 80.5039C17.5586 80.5352 17.8828 80.5664 18.2188 80.5977C18.5625 80.6211 18.8594 80.6328 19.1094 80.6328C19.7188 80.6328 20.3633 80.6133 21.043 80.5742C21.7305 80.5273 22.4219 80.4492 23.1172 80.3398L23.4336 80.6211C23.3164 81.2773 23.1914 81.918 23.0586 82.543C22.9336 83.1602 22.7578 83.7383 22.5312 84.2773L21.7812 84.3594ZM26.3164 89.9844C25.832 89.9609 25.3281 89.9414 24.8047 89.9258C24.2812 89.918 23.7656 89.918 23.2578 89.9258C22.7578 89.9336 22.2773 89.9414 21.8164 89.9492C21.3633 89.9648 20.9648 89.9844 20.6211 90.0078C20.3477 90.0234 20.1484 89.9688 20.0234 89.8438C19.9062 89.7188 19.8477 89.5703 19.8477 89.3984V88.1328C19.8477 87.9609 19.8398 87.8242 19.8242 87.7227C19.8086 87.6211 19.7656 87.5352 19.6953 87.4648C19.625 87.3945 19.5195 87.3359 19.3789 87.2891C19.2461 87.2344 19.0625 87.1758 18.8281 87.1133L19.0273 86.6797C19.1367 86.6953 19.2812 86.7148 19.4609 86.7383C19.6406 86.7617 19.8242 86.7852 20.0117 86.8086C20.207 86.832 20.3945 86.8594 20.5742 86.8906C20.7539 86.9141 20.9023 86.9336 21.0195 86.9492C21.0039 87.043 20.9883 87.1836 20.9727 87.3711C20.957 87.5586 20.9492 87.7227 20.9492 87.8633V89.0234C20.9492 89.1719 20.9727 89.2617 21.0195 89.293C21.0664 89.332 21.1797 89.3555 21.3594 89.3633C21.6484 89.3711 22.0156 89.3672 22.4609 89.3516C22.9062 89.3438 23.3672 89.3242 23.8438 89.293C24.3281 89.2695 24.8008 89.2383 25.2617 89.1992C25.7305 89.1602 26.1328 89.1133 26.4688 89.0586L26.3164 89.9844ZM33.2305 87.3828C33.2305 87.5859 33.2266 87.8047 33.2188 88.0391C33.2109 88.2734 33.1992 88.5078 33.1836 88.7422C33.168 88.9766 33.1484 89.1992 33.125 89.4102C33.1016 89.6289 33.0742 89.8203 33.043 89.9844L32.2227 90.1133C32.207 89.9805 32.1914 89.8125 32.1758 89.6094C32.168 89.4141 32.1602 89.2109 32.1523 89C32.1445 88.7812 32.1367 88.5664 32.1289 88.3555C32.1289 88.1367 32.1289 87.9414 32.1289 87.7695V86.5977C31.6758 86.6445 31.2461 86.6797 30.8398 86.7031C30.7539 86.7109 30.6328 86.7227 30.4766 86.7383C30.3281 86.7539 30.1641 86.7734 29.9844 86.7969C29.8125 86.8125 29.6367 86.832 29.457 86.8555C29.2852 86.8789 29.1328 86.9023 29 86.9258L28.4258 85.8945C28.5508 85.918 28.6953 85.9375 28.8594 85.9531C29.0234 85.9688 29.1914 85.9844 29.3633 86C29.543 86.0156 29.7148 86.0273 29.8789 86.0352C30.043 86.0352 30.1914 86.0352 30.3242 86.0352C30.8633 86.0273 31.4141 86 31.9766 85.9531C32.5469 85.9062 33.1055 85.8516 33.6523 85.7891C34.207 85.7266 34.7422 85.6562 35.2578 85.5781C35.7812 85.4922 36.2656 85.4023 36.7109 85.3086V80.4688C36.7109 80.2266 36.5938 80.0312 36.3594 79.8828C36.1328 79.7266 35.7617 79.5859 35.2461 79.4609L35.4453 79.0273C35.6328 79.0508 35.8398 79.082 36.0664 79.1211C36.293 79.1523 36.5195 79.1914 36.7461 79.2383C36.9727 79.2773 37.1875 79.3164 37.3906 79.3555C37.6016 79.3945 37.7812 79.4258 37.9297 79.4492C37.9141 79.5195 37.8984 79.6055 37.8828 79.707C37.875 79.8086 37.8633 79.9141 37.8477 80.0234C37.8398 80.125 37.832 80.2188 37.8242 80.3047C37.8164 80.3906 37.8125 80.4531 37.8125 80.4922V86.9844C37.8125 87.2266 37.8047 87.5078 37.7891 87.8281C37.7812 88.1406 37.7656 88.457 37.7422 88.7773C37.7266 89.0898 37.707 89.3867 37.6836 89.668C37.6602 89.957 37.6328 90.1875 37.6016 90.3594L36.793 90.4648C36.7852 90.3398 36.7734 90.1719 36.7578 89.9609C36.75 89.75 36.7422 89.5234 36.7344 89.2812C36.7266 89.0469 36.7188 88.8047 36.7109 88.5547C36.7109 88.2969 36.7109 88.0547 36.7109 87.8281V85.8125C36.1562 85.9453 35.582 86.0703 34.9883 86.1875C34.3945 86.2969 33.8086 86.3906 33.2305 86.4688V87.3828ZM34.1328 80.3984C34 80.3984 33.8516 80.3984 33.6875 80.3984C33.5312 80.3984 33.3711 80.4023 33.207 80.4102C33.0508 80.4102 32.8984 80.4141 32.75 80.4219C32.6016 80.4219 32.4766 80.4219 32.375 80.4219C32.3203 80.4219 32.2422 80.4258 32.1406 80.4336C32.0391 80.4336 31.9297 80.4414 31.8125 80.457C31.6953 80.4648 31.5742 80.4766 31.4492 80.4922C31.3242 80.5 31.2109 80.5117 31.1094 80.5273L30.6523 79.6367C30.7383 79.6602 30.8477 79.6836 30.9805 79.707C31.1211 79.7305 31.2656 79.7539 31.4141 79.7773C31.5703 79.793 31.7188 79.8086 31.8594 79.8242C32.0078 79.832 32.1289 79.8359 32.2227 79.8359C32.3164 79.8359 32.4453 79.832 32.6094 79.8242C32.7734 79.8086 32.9492 79.793 33.1367 79.7773C33.332 79.7617 33.5312 79.7422 33.7344 79.7188C33.9453 79.6953 34.1406 79.6719 34.3203 79.6484L34.1328 80.3984ZM35.8438 81.5C35.6641 81.5 35.4453 81.5 35.1875 81.5C34.9297 81.5 34.6484 81.5039 34.3438 81.5117C34.0469 81.5195 33.7383 81.5273 33.418 81.5352C33.0977 81.543 32.7891 81.5508 32.4922 81.5586C32.1953 81.5664 31.918 81.5742 31.6602 81.582C31.4102 81.5898 31.2031 81.5977 31.0391 81.6055C30.9531 81.6133 30.8359 81.625 30.6875 81.6406C30.5391 81.6484 30.3828 81.6602 30.2188 81.6758C30.0625 81.6914 29.9102 81.707 29.7617 81.7227C29.6133 81.7383 29.4922 81.7539 29.3984 81.7695L28.9062 80.832C29.0156 80.8555 29.1484 80.8789 29.3047 80.9023C29.4688 80.918 29.6328 80.9336 29.7969 80.9492C29.9688 80.9648 30.1328 80.9805 30.2891 80.9961C30.4531 81.0039 30.5898 81.0078 30.6992 81.0078C30.9648 81.0078 31.3164 81.0039 31.7539 80.9961C32.1914 80.9805 32.6602 80.9609 33.1602 80.9375C33.6602 80.9062 34.1602 80.8672 34.6602 80.8203C35.1602 80.7734 35.6016 80.7148 35.9844 80.6445L35.8438 81.5ZM34.9297 83.6328C34.9297 83.8672 34.8672 84.0898 34.7422 84.3008C34.6172 84.5117 34.4453 84.6953 34.2266 84.8516C34.0156 85.0078 33.7656 85.1328 33.4766 85.2266C33.1875 85.3125 32.875 85.3555 32.5391 85.3555C32.2109 85.3555 31.9023 85.3086 31.6133 85.2148C31.3242 85.1211 31.0703 84.9961 30.8516 84.8398C30.6406 84.6836 30.4727 84.5039 30.3477 84.3008C30.2227 84.0898 30.1602 83.8672 30.1602 83.6328C30.1602 83.3828 30.2227 83.1523 30.3477 82.9414C30.4727 82.7227 30.6406 82.5352 30.8516 82.3789C31.0703 82.2227 31.3242 82.1016 31.6133 82.0156C31.9023 81.9297 32.2109 81.8867 32.5391 81.8867C32.8984 81.8867 33.2227 81.9375 33.5117 82.0391C33.8086 82.1328 34.0625 82.2617 34.2734 82.4258C34.4844 82.582 34.6445 82.7656 34.7539 82.9766C34.8711 83.1875 34.9297 83.4062 34.9297 83.6328ZM31.3203 83.5859C31.3203 83.7344 31.3516 83.8789 31.4141 84.0195C31.4844 84.1523 31.5742 84.2734 31.6836 84.3828C31.8008 84.4844 31.9297 84.5664 32.0703 84.6289C32.2188 84.6914 32.375 84.7227 32.5391 84.7227C32.7109 84.7227 32.8711 84.6953 33.0195 84.6406C33.1758 84.5781 33.3086 84.4961 33.418 84.3945C33.5352 84.293 33.625 84.1719 33.6875 84.0312C33.7578 83.8906 33.793 83.7422 33.793 83.5859C33.793 83.4375 33.7578 83.293 33.6875 83.1523C33.625 83.0117 33.5391 82.8867 33.4297 82.7773C33.3203 82.668 33.1875 82.582 33.0312 82.5195C32.875 82.457 32.7109 82.4258 32.5391 82.4258C32.375 82.4258 32.2188 82.457 32.0703 82.5195C31.9219 82.5742 31.793 82.6523 31.6836 82.7539C31.5742 82.8555 31.4844 82.9766 31.4141 83.1172C31.3516 83.2578 31.3203 83.4141 31.3203 83.5859ZM48.3594 87.9062C48.457 87.5156 48.5514 87.0827 48.6426 86.6074C48.7337 86.1257 48.8151 85.6439 48.8867 85.1621C48.9648 84.6738 49.0267 84.2051 49.0723 83.7559C49.1243 83.3066 49.1569 82.9128 49.1699 82.5742C48.929 82.5742 48.6589 82.5775 48.3594 82.584C48.0599 82.584 47.7604 82.5905 47.4609 82.6035C47.1615 82.61 46.8717 82.6198 46.5918 82.6328C46.3184 82.6393 46.084 82.6491 45.8887 82.6621C45.791 82.6686 45.6706 82.6784 45.5273 82.6914C45.3906 82.6979 45.2441 82.7077 45.0879 82.7207C44.9316 82.7337 44.7721 82.7533 44.6094 82.7793C44.4531 82.7988 44.3099 82.8216 44.1797 82.8477L43.7598 82.0371C43.8835 82.0501 44.0202 82.0664 44.1699 82.0859C44.3197 82.099 44.4661 82.112 44.6094 82.125C44.7591 82.138 44.9023 82.1478 45.0391 82.1543C45.1758 82.1608 45.2962 82.1641 45.4004 82.1641C45.752 82.1641 46.1361 82.1608 46.5527 82.1543C46.9759 82.1413 47.3991 82.125 47.8223 82.1055C48.2454 82.0859 48.6523 82.0599 49.043 82.0273C49.4401 81.9948 49.7852 81.9557 50.0781 81.9102L50.332 82.1641C50.2734 82.5938 50.1953 83.0625 50.0977 83.5703C50.0065 84.0781 49.9023 84.5892 49.7852 85.1035C49.6745 85.6178 49.554 86.1159 49.4238 86.5977C49.3001 87.0794 49.1732 87.5059 49.043 87.877H49.0625C49.4987 87.8574 49.9414 87.8281 50.3906 87.7891C50.8464 87.7435 51.25 87.6947 51.6016 87.6426L51.4844 88.4434C51.224 88.4303 50.8854 88.4206 50.4688 88.4141C50.0521 88.4076 49.6257 88.401 49.1895 88.3945C49.0072 88.3945 48.7858 88.3978 48.5254 88.4043C48.265 88.4043 47.9818 88.4108 47.6758 88.4238C47.3763 88.4303 47.0671 88.4401 46.748 88.4531C46.4355 88.4596 46.1361 88.4694 45.8496 88.4824C45.5632 88.4889 45.3027 88.4987 45.0684 88.5117C44.8405 88.5247 44.6615 88.5345 44.5312 88.541C44.2839 88.554 44.0202 88.5736 43.7402 88.5996C43.4603 88.6191 43.1999 88.6452 42.959 88.6777L42.6465 87.8281C42.9395 87.8607 43.2487 87.89 43.5742 87.916C43.9062 87.9355 44.222 87.9518 44.5215 87.9648C44.7168 87.9714 44.9707 87.9746 45.2832 87.9746C45.6022 87.9681 45.9408 87.9616 46.2988 87.9551C46.6569 87.9486 47.015 87.9421 47.373 87.9355C47.7376 87.9225 48.0664 87.9128 48.3594 87.9062ZM56.4258 82.7305C56.3086 82.724 56.1751 82.724 56.0254 82.7305C55.8757 82.7305 55.7259 82.7337 55.5762 82.7402C55.4264 82.7467 55.2767 82.7565 55.127 82.7695C54.9772 82.7826 54.8438 82.7923 54.7266 82.7988C54.6549 82.8053 54.5605 82.8118 54.4434 82.8184C54.3327 82.8249 54.209 82.8346 54.0723 82.8477C53.9421 82.8607 53.8086 82.877 53.6719 82.8965C53.5352 82.9095 53.4082 82.9258 53.291 82.9453L52.8223 82.1738C52.9004 82.1868 53.0013 82.2031 53.125 82.2227C53.2552 82.2422 53.3887 82.2585 53.5254 82.2715C53.6686 82.2845 53.8086 82.2975 53.9453 82.3105C54.0885 82.3171 54.2122 82.3203 54.3164 82.3203C54.4922 82.3203 54.707 82.3203 54.9609 82.3203C55.2214 82.3138 55.4948 82.3073 55.7812 82.3008C56.0742 82.2878 56.3704 82.2715 56.6699 82.252C56.9759 82.2324 57.2624 82.2096 57.5293 82.1836C57.5163 82.2227 57.5 82.278 57.4805 82.3496C57.4674 82.4147 57.4512 82.4863 57.4316 82.5645C57.4186 82.6361 57.4056 82.7044 57.3926 82.7695C57.3796 82.8346 57.3698 82.8835 57.3633 82.916L57.1777 84.4492C57.2363 84.4427 57.2917 84.4395 57.3438 84.4395C57.4023 84.4329 57.4609 84.4264 57.5195 84.4199L57.4414 85.0352C56.7122 85.0026 56.1068 84.9961 55.625 85.0156C55.1432 85.0352 54.7331 85.0547 54.3945 85.0742C54.3945 85.1263 54.3913 85.1784 54.3848 85.2305C54.3783 85.2826 54.375 85.3346 54.375 85.3867V86.7148C54.375 86.806 54.3978 86.8809 54.4434 86.9395C54.4954 86.9915 54.5605 87.0143 54.6387 87.0078C54.8796 86.9883 55.1725 86.9557 55.5176 86.9102C55.8691 86.8646 56.2402 86.806 56.6309 86.7344C57.0215 86.6628 57.4219 86.5814 57.832 86.4902C58.2487 86.3991 58.6426 86.2949 59.0137 86.1777V81.8906C59.0137 81.6888 58.916 81.526 58.7207 81.4023C58.5319 81.2721 58.2227 81.1549 57.793 81.0508L57.9688 80.6895C58.125 80.709 58.2975 80.735 58.4863 80.7676C58.6751 80.7936 58.8639 80.8262 59.0527 80.8652C59.2415 80.8978 59.4206 80.9303 59.5898 80.9629C59.7656 80.9954 59.9186 81.0215 60.0488 81.041C60.0358 81.0996 60.0228 81.1712 60.0098 81.2559C59.9967 81.3405 59.9837 81.4284 59.9707 81.5195C59.9577 81.6042 59.9479 81.6823 59.9414 81.7539C59.9349 81.8255 59.9316 81.8776 59.9316 81.9102V87.3203C59.9316 87.5221 59.9251 87.7565 59.9121 88.0234C59.9056 88.2839 59.8926 88.5475 59.873 88.8145C59.86 89.0749 59.8438 89.3223 59.8242 89.5566C59.8047 89.7975 59.7819 89.9896 59.7559 90.1328L59.1016 90.2207C59.0885 90.1165 59.0755 89.9766 59.0625 89.8008C59.056 89.625 59.0462 89.4362 59.0332 89.2344C59.0267 89.0391 59.0202 88.8372 59.0137 88.6289C59.0137 88.4141 59.0137 88.2122 59.0137 88.0234V86.5781C58.6816 86.6953 58.304 86.8125 57.8809 86.9297C57.4642 87.0469 57.0443 87.1543 56.6211 87.252C56.2044 87.3496 55.804 87.4342 55.4199 87.5059C55.0423 87.5775 54.7201 87.6263 54.4531 87.6523C54.0951 87.6849 53.8411 87.6361 53.6914 87.5059C53.5417 87.3691 53.4668 87.1445 53.4668 86.832V85.543C53.4668 85.4258 53.457 85.3281 53.4375 85.25C53.4245 85.1719 53.3919 85.1068 53.3398 85.0547C53.2943 85.0026 53.2259 84.957 53.1348 84.918C53.0436 84.8789 52.9199 84.8366 52.7637 84.791L52.9297 84.4785C53.5547 84.5501 54.1536 84.5827 54.7266 84.5762C55.2995 84.5697 55.8398 84.5501 56.3477 84.5176L56.4258 82.7305ZM66.1426 88.0137C66.5332 88.0007 66.8978 87.9876 67.2363 87.9746C67.5814 87.9616 67.8581 87.9486 68.0664 87.9355C68.5026 87.916 68.9453 87.8867 69.3945 87.8477C69.8503 87.8086 70.2539 87.763 70.6055 87.7109L70.4883 88.5117C70.2279 88.4987 69.8893 88.4889 69.4727 88.4824C69.056 88.4759 68.6296 88.4694 68.1934 88.4629C68.0111 88.4629 67.7897 88.4661 67.5293 88.4727C67.2689 88.4727 66.9857 88.4792 66.6797 88.4922C66.3802 88.4987 66.071 88.5085 65.752 88.5215C65.4395 88.528 65.14 88.5378 64.8535 88.5508C64.5671 88.5573 64.3066 88.5671 64.0723 88.5801C63.8444 88.5931 63.6654 88.6029 63.5352 88.6094C63.2878 88.6224 63.0241 88.6419 62.7441 88.668C62.4642 88.6875 62.2038 88.7135 61.9629 88.7461L61.6504 87.8867C61.9434 87.9258 62.2526 87.9583 62.5781 87.9844C62.9102 88.0039 63.2259 88.0202 63.5254 88.0332C63.7142 88.0462 63.9583 88.0527 64.2578 88.0527C64.5638 88.0462 64.8926 88.0397 65.2441 88.0332V85.5039C65.2441 85.3997 65.2311 85.3118 65.2051 85.2402C65.1855 85.1621 65.1432 85.097 65.0781 85.0449C65.013 84.9928 64.9251 84.9473 64.8145 84.9082C64.7038 84.8626 64.5573 84.8236 64.375 84.791L64.541 84.4395C64.6452 84.4525 64.7689 84.4655 64.9121 84.4785C65.0618 84.4915 65.2148 84.5111 65.3711 84.5371C65.5273 84.5566 65.6803 84.5794 65.8301 84.6055C65.9863 84.6315 66.1263 84.6576 66.25 84.6836C66.224 84.8008 66.1979 84.944 66.1719 85.1133C66.1523 85.2826 66.1426 85.4062 66.1426 85.4844V88.0137ZM67.7148 86.6562C67.7865 86.3438 67.8548 85.9987 67.9199 85.6211C67.985 85.237 68.0404 84.8561 68.0859 84.4785C68.138 84.0944 68.1803 83.7266 68.2129 83.375C68.2454 83.0169 68.2682 82.7044 68.2812 82.4375C68.0339 82.4375 67.7539 82.4408 67.4414 82.4473C67.1354 82.4473 66.8262 82.4538 66.5137 82.4668C66.2012 82.4733 65.9017 82.4831 65.6152 82.4961C65.3288 82.5026 65.0879 82.5124 64.8926 82.5254C64.7949 82.5319 64.6745 82.5417 64.5312 82.5547C64.3945 82.5677 64.248 82.5807 64.0918 82.5938C63.9355 82.6068 63.776 82.6263 63.6133 82.6523C63.457 82.6719 63.3138 82.6947 63.1836 82.7207L62.7637 81.9199C62.8874 81.9329 63.0241 81.946 63.1738 81.959C63.3236 81.972 63.4701 81.985 63.6133 81.998C63.763 82.0046 63.9062 82.0111 64.043 82.0176C64.1797 82.0241 64.3001 82.0273 64.4043 82.0273C64.7559 82.0273 65.1465 82.0241 65.5762 82.0176C66.0059 82.0046 66.4388 81.9883 66.875 81.9688C67.3112 81.9492 67.7311 81.9264 68.1348 81.9004C68.5384 81.8678 68.8867 81.8288 69.1797 81.7832L69.4336 82.0273C69.375 82.4115 69.3099 82.8086 69.2383 83.2188C69.1732 83.6289 69.0951 84.0358 69.0039 84.4395C68.9193 84.8366 68.8249 85.2272 68.7207 85.6113C68.6165 85.9889 68.5026 86.3372 68.3789 86.6562H67.7148ZM80.2285 79.8945C80.5723 79.9414 80.8887 80.0273 81.1777 80.1523C81.4668 80.2773 81.7129 80.4336 81.916 80.6211C82.127 80.8086 82.2871 81.0234 82.3965 81.2656C82.5137 81.5 82.5723 81.75 82.5723 82.0156C82.5723 82.3281 82.498 82.6172 82.3496 82.8828C82.209 83.1484 82.0098 83.3789 81.752 83.5742C81.4941 83.7617 81.1895 83.9102 80.8379 84.0195C80.4863 84.1289 80.0996 84.1836 79.6777 84.1836C79.2715 84.1836 78.8965 84.1289 78.5527 84.0195C78.209 83.9102 77.9121 83.7617 77.6621 83.5742C77.4121 83.3789 77.2168 83.1484 77.0762 82.8828C76.9355 82.6172 76.8652 82.3281 76.8652 82.0156C76.8652 81.7422 76.9238 81.4844 77.041 81.2422C77.166 80.9922 77.3379 80.7695 77.5566 80.5742C77.7754 80.3789 78.0332 80.2227 78.3301 80.1055C78.6348 79.9805 78.9668 79.9023 79.3262 79.8711C79.2949 79.707 79.1191 79.582 78.7988 79.4961L78.9746 79.1328C79.0684 79.1484 79.1777 79.168 79.3027 79.1914C79.4277 79.2148 79.5527 79.2383 79.6777 79.2617C79.8105 79.2852 79.9395 79.3086 80.0645 79.332C80.1895 79.3555 80.3027 79.375 80.4043 79.3906C80.373 79.4766 80.3418 79.5625 80.3105 79.6484C80.2871 79.7266 80.2598 79.8086 80.2285 79.8945ZM81.4121 81.9688C81.4121 81.7578 81.3652 81.5586 81.2715 81.3711C81.1855 81.1758 81.0645 81.0078 80.9082 80.8672C80.752 80.7188 80.5723 80.6016 80.3691 80.5156C80.166 80.4297 79.9551 80.3867 79.7363 80.3867C79.502 80.3867 79.2832 80.4297 79.0801 80.5156C78.877 80.6016 78.6973 80.7188 78.541 80.8672C78.3926 81.0078 78.2715 81.1758 78.1777 81.3711C78.0918 81.5586 78.0488 81.7578 78.0488 81.9688C78.0488 82.2031 78.0918 82.418 78.1777 82.6133C78.2637 82.8008 78.3809 82.9648 78.5293 83.1055C78.6855 83.2383 78.8652 83.3438 79.0684 83.4219C79.2793 83.4922 79.502 83.5273 79.7363 83.5273C79.9629 83.5273 80.1777 83.4922 80.3809 83.4219C80.584 83.3438 80.7598 83.2383 80.9082 83.1055C81.0645 82.9648 81.1855 82.8008 81.2715 82.6133C81.3652 82.418 81.4121 82.2031 81.4121 81.9688ZM82.0098 87.6875C82.0098 87.8984 82.002 88.1211 81.9863 88.3555C81.9785 88.5898 81.9668 88.8242 81.9512 89.0586C81.9355 89.293 81.916 89.5156 81.8926 89.7266C81.8691 89.9453 81.8418 90.1367 81.8105 90.3008L81.0137 90.4414C80.998 90.3086 80.9824 90.1406 80.9668 89.9375C80.959 89.7422 80.9512 89.5352 80.9434 89.3164C80.9355 89.1055 80.9277 88.8906 80.9199 88.6719C80.9199 88.4531 80.9199 88.2578 80.9199 88.0859V85.7188C80.5684 85.7266 80.1973 85.7383 79.8066 85.7539C79.416 85.7617 79.0332 85.7734 78.6582 85.7891V87.4766C78.6582 87.6797 78.6504 87.8984 78.6348 88.1328C78.627 88.3672 78.6152 88.6016 78.5996 88.8359C78.584 89.0703 78.5645 89.293 78.541 89.5039C78.5176 89.7148 78.4902 89.9023 78.459 90.0664L77.6738 90.207C77.6582 90.0742 77.6426 89.9062 77.627 89.7031C77.6191 89.5078 77.6113 89.3008 77.6035 89.082C77.5957 88.8711 77.5879 88.6602 77.5801 88.4492C77.5801 88.2305 77.5801 88.0352 77.5801 87.8633V85.8242C77.3301 85.832 77.1074 85.8398 76.9121 85.8477C76.7168 85.8555 76.5605 85.8633 76.4434 85.8711C76.1465 85.8867 75.8262 85.9102 75.4824 85.9414C75.1465 85.9727 74.8418 86.0078 74.5684 86.0469L74.1699 85.0273C74.5215 85.0664 74.8965 85.1016 75.2949 85.1328C75.7012 85.1562 76.0801 85.1758 76.4316 85.1914C76.627 85.1992 76.873 85.2031 77.1699 85.2031C77.4746 85.2031 77.8066 85.2031 78.166 85.2031C78.5254 85.1953 78.8965 85.1875 79.2793 85.1797C79.6699 85.1641 80.041 85.1523 80.3926 85.1445C80.752 85.1367 81.0801 85.1289 81.377 85.1211C81.6816 85.1055 81.9277 85.0938 82.1152 85.0859C82.6387 85.0625 83.1699 85.0273 83.709 84.9805C84.2559 84.9336 84.7402 84.8789 85.1621 84.8164L85.0215 85.7773C84.8652 85.7695 84.6816 85.7617 84.4707 85.7539C84.2676 85.7383 84.0449 85.7305 83.8027 85.7305C83.5605 85.7227 83.3105 85.7148 83.0527 85.707C82.7949 85.6992 82.5371 85.6953 82.2793 85.6953H82.0098V87.6875ZM93.2598 80.4688C93.2598 80.2266 93.1465 80.0312 92.9199 79.8828C92.7012 79.7266 92.334 79.5859 91.8184 79.4609L91.9941 79.0273C92.1895 79.0508 92.4004 79.082 92.627 79.1211C92.8613 79.1523 93.0918 79.1914 93.3184 79.2383C93.5449 79.2773 93.7598 79.3164 93.9629 79.3555C94.166 79.3945 94.3418 79.4258 94.4902 79.4492C94.4746 79.5195 94.459 79.6055 94.4434 79.707C94.4277 79.8086 94.4121 79.9141 94.3965 80.0234C94.3887 80.125 94.3809 80.2188 94.373 80.3047C94.3652 80.3906 94.3613 80.4531 94.3613 80.4922V83.7734C94.6973 83.7422 95.0801 83.7031 95.5098 83.6562C95.9473 83.6094 96.3457 83.5547 96.7051 83.4922L96.5762 84.4414C96.4355 84.4336 96.2715 84.4297 96.084 84.4297C95.9043 84.4297 95.7129 84.4297 95.5098 84.4297C95.3145 84.4297 95.1152 84.4297 94.9121 84.4297C94.709 84.4297 94.5254 84.4297 94.3613 84.4297V86.9844C94.3613 87.2266 94.3574 87.5078 94.3496 87.8281C94.3418 88.1406 94.3301 88.457 94.3145 88.7773C94.2988 89.0898 94.2793 89.3867 94.2559 89.668C94.2324 89.957 94.2051 90.1875 94.1738 90.3594L93.3652 90.4648C93.3496 90.3398 93.334 90.1719 93.3184 89.9609C93.3105 89.75 93.2988 89.5234 93.2832 89.2812C93.2754 89.0469 93.2676 88.8047 93.2598 88.5547C93.2598 88.2969 93.2598 88.0547 93.2598 87.8281V85.3906C92.9082 85.5312 92.5137 85.6758 92.0762 85.8242C91.6465 85.9648 91.2012 86.1016 90.7402 86.2344C90.2871 86.3672 89.8379 86.4883 89.3926 86.5977C88.9551 86.6992 88.5566 86.7773 88.1973 86.832C87.7832 86.8945 87.4863 86.8477 87.3066 86.6914C87.1348 86.5273 87.0488 86.2578 87.0488 85.8828V82.3086C87.0488 82.1836 87.0332 82.082 87.002 82.0039C86.9785 81.918 86.9238 81.8438 86.8379 81.7812C86.752 81.7188 86.6309 81.6641 86.4746 81.6172C86.3262 81.5703 86.123 81.5234 85.8652 81.4766L86.0176 81.043C86.4082 81.0586 86.8066 81.0938 87.2129 81.1484C87.627 81.1953 87.9863 81.2461 88.291 81.3008C88.2754 81.3711 88.2598 81.457 88.2441 81.5586C88.2285 81.6602 88.2129 81.7617 88.1973 81.8633C88.1895 81.9648 88.1816 82.0586 88.1738 82.1445C88.166 82.2305 88.1621 82.293 88.1621 82.332V85.6367C88.1621 85.7695 88.1816 85.8633 88.2207 85.918C88.2676 85.9648 88.3301 85.9844 88.4082 85.9766C88.6738 85.9609 89.0059 85.918 89.4043 85.8477C89.8105 85.7773 90.2402 85.6914 90.6934 85.5898C91.1465 85.4883 91.5957 85.375 92.041 85.25C92.4941 85.125 92.9004 85.0039 93.2598 84.8867V80.4688ZM105.424 81.6758C105.072 81.6914 104.713 81.7227 104.346 81.7695C103.986 81.8086 103.682 81.8594 103.432 81.9219L102.951 81.0312C103.029 81.0469 103.131 81.0625 103.256 81.0781C103.389 81.0859 103.529 81.0977 103.678 81.1133C103.826 81.1211 103.975 81.1289 104.123 81.1367C104.271 81.1367 104.404 81.1367 104.521 81.1367C104.646 81.1289 104.787 81.125 104.943 81.125C105.107 81.1172 105.268 81.1133 105.424 81.1133V80.4688C105.424 80.2266 105.307 80.0312 105.072 79.8828C104.846 79.7266 104.475 79.5859 103.959 79.4609L104.17 79.0273C104.357 79.0508 104.564 79.082 104.791 79.1211C105.018 79.1523 105.244 79.1914 105.471 79.2383C105.697 79.2773 105.912 79.3164 106.115 79.3555C106.326 79.3945 106.51 79.4258 106.666 79.4492C106.65 79.5195 106.635 79.6055 106.619 79.707C106.604 79.8086 106.588 79.9141 106.572 80.0234C106.564 80.125 106.557 80.2188 106.549 80.3047C106.541 80.3906 106.537 80.4531 106.537 80.4922V84.125C106.537 84.2656 106.529 84.4297 106.514 84.6172C106.498 84.8047 106.479 84.9922 106.455 85.1797C106.439 85.3672 106.42 85.5469 106.396 85.7188C106.373 85.8828 106.35 86.0156 106.326 86.1172L105.529 86.2344C105.514 86.1562 105.498 86.0547 105.482 85.9297C105.475 85.8047 105.463 85.6758 105.447 85.543C105.439 85.4023 105.432 85.2656 105.424 85.1328C105.424 85 105.424 84.8789 105.424 84.7695V84.2188C105.072 84.2422 104.701 84.2773 104.311 84.3242C103.928 84.3633 103.604 84.4141 103.338 84.4766L103.08 83.9258C102.861 84.2539 102.545 84.5195 102.131 84.7227C101.717 84.918 101.248 85.0156 100.725 85.0156C100.334 85.0156 99.9707 84.9609 99.6348 84.8516C99.3066 84.7422 99.0215 84.5898 98.7793 84.3945C98.5371 84.1992 98.3496 83.9688 98.2168 83.7031C98.084 83.4375 98.0176 83.1523 98.0176 82.8477C98.0176 82.5664 98.0762 82.3008 98.1934 82.0508C98.3105 81.8008 98.4707 81.5781 98.6738 81.3828C98.8848 81.1875 99.1348 81.0273 99.4238 80.9023C99.7129 80.7773 100.029 80.6992 100.373 80.668C100.357 80.5742 100.314 80.5 100.244 80.4453C100.174 80.3906 100.049 80.3359 99.8691 80.2812L100.068 79.9297C100.154 79.9453 100.256 79.9648 100.373 79.9883C100.49 80.0117 100.607 80.0352 100.725 80.0586C100.85 80.082 100.971 80.1055 101.088 80.1289C101.205 80.1523 101.311 80.1758 101.404 80.1992C101.381 80.2695 101.354 80.3477 101.322 80.4336C101.291 80.5117 101.268 80.5977 101.252 80.6914C101.572 80.7383 101.865 80.8281 102.131 80.9609C102.404 81.0859 102.635 81.2461 102.822 81.4414C103.018 81.6289 103.166 81.8438 103.268 82.0859C103.377 82.3281 103.432 82.582 103.432 82.8477C103.432 83.1367 103.373 83.3906 103.256 83.6094C103.443 83.6328 103.65 83.6562 103.877 83.6797C104.104 83.6953 104.299 83.6992 104.463 83.6914C104.596 83.6836 104.748 83.6797 104.92 83.6797C105.1 83.6719 105.268 83.668 105.424 83.668V81.6758ZM102.283 82.8008C102.283 82.5742 102.24 82.3633 102.154 82.168C102.076 81.9727 101.967 81.8047 101.826 81.6641C101.686 81.5156 101.521 81.4023 101.334 81.3242C101.146 81.2383 100.947 81.1953 100.736 81.1953C100.518 81.1953 100.311 81.2383 100.115 81.3242C99.9277 81.4023 99.7637 81.5156 99.623 81.6641C99.4824 81.8047 99.3691 81.9727 99.2832 82.168C99.2051 82.3633 99.166 82.5742 99.166 82.8008C99.166 83.0273 99.2051 83.2383 99.2832 83.4336C99.3691 83.6211 99.4824 83.7852 99.623 83.9258C99.7637 84.0586 99.9277 84.1641 100.115 84.2422C100.311 84.3203 100.518 84.3594 100.736 84.3594C100.955 84.3594 101.158 84.3203 101.346 84.2422C101.533 84.1641 101.697 84.0586 101.838 83.9258C101.979 83.7852 102.088 83.6211 102.166 83.4336C102.244 83.2383 102.283 83.0273 102.283 82.8008ZM104.299 86.3047C104.604 86.3438 104.885 86.4258 105.143 86.5508C105.4 86.668 105.619 86.8164 105.799 86.9961C105.979 87.168 106.119 87.3672 106.221 87.5938C106.322 87.8125 106.373 88.0508 106.373 88.3086C106.373 88.5977 106.307 88.8633 106.174 89.1055C106.049 89.3555 105.869 89.5703 105.635 89.75C105.408 89.9375 105.135 90.082 104.814 90.1836C104.502 90.2852 104.162 90.3359 103.795 90.3359C103.42 90.3359 103.076 90.2852 102.764 90.1836C102.451 90.082 102.182 89.9375 101.955 89.75C101.729 89.5703 101.549 89.3555 101.416 89.1055C101.291 88.8633 101.229 88.5977 101.229 88.3086C101.229 88.0508 101.279 87.8086 101.381 87.582C101.49 87.3477 101.643 87.1406 101.838 86.9609C102.033 86.7812 102.26 86.6328 102.518 86.5156C102.783 86.3984 103.076 86.3242 103.396 86.293C103.389 86.1914 103.35 86.1172 103.279 86.0703C103.217 86.0156 103.096 85.957 102.916 85.8945L103.115 85.543C103.193 85.5586 103.291 85.5781 103.408 85.6016C103.525 85.625 103.643 85.6484 103.76 85.6719C103.885 85.6953 104.006 85.7227 104.123 85.7539C104.248 85.7773 104.357 85.8008 104.451 85.8242C104.412 85.918 104.381 86 104.357 86.0703C104.334 86.1406 104.314 86.2188 104.299 86.3047ZM105.213 88.2383C105.213 88.0352 105.174 87.8477 105.096 87.6758C105.018 87.4961 104.912 87.3438 104.779 87.2188C104.654 87.0859 104.506 86.9844 104.334 86.9141C104.162 86.8359 103.979 86.7969 103.783 86.7969C103.596 86.7969 103.412 86.8359 103.232 86.9141C103.061 86.9844 102.908 87.0859 102.775 87.2188C102.65 87.3438 102.549 87.4961 102.471 87.6758C102.393 87.8477 102.354 88.0352 102.354 88.2383C102.354 88.4414 102.393 88.6328 102.471 88.8125C102.549 88.9844 102.65 89.1328 102.775 89.2578C102.908 89.3906 103.061 89.4922 103.232 89.5625C103.412 89.6406 103.596 89.6797 103.783 89.6797C103.979 89.6797 104.162 89.6406 104.334 89.5625C104.514 89.4922 104.666 89.3906 104.791 89.2578C104.924 89.1328 105.025 88.9844 105.096 88.8125C105.174 88.6328 105.213 88.4414 105.213 88.2383Z" fill="#D28BB3"/>
<path d="M32.3301 106.992C32.0488 107.43 31.7207 107.852 31.3457 108.258C30.9785 108.656 30.5762 109.027 30.1387 109.371C29.709 109.715 29.2559 110.031 28.7793 110.32C28.3027 110.602 27.8223 110.84 27.3379 111.035L27.0449 110.684C27.5293 110.457 28.0059 110.176 28.4746 109.84C28.9434 109.504 29.377 109.133 29.7754 108.727C30.1816 108.32 30.5449 107.895 30.8652 107.449C31.1855 106.996 31.4355 106.539 31.6152 106.078C31.4434 106.078 31.2637 106.082 31.0762 106.09C30.8965 106.09 30.7207 106.094 30.5488 106.102C30.3848 106.109 30.2324 106.117 30.0918 106.125C29.959 106.133 29.8535 106.141 29.7754 106.148C29.6973 106.156 29.5879 106.164 29.4473 106.172C29.3066 106.18 29.1582 106.195 29.002 106.219C28.8457 106.234 28.6855 106.254 28.5215 106.277C28.3574 106.301 28.2129 106.328 28.0879 106.359L27.4551 105.41C27.5488 105.426 27.6738 105.441 27.8301 105.457C27.9941 105.473 28.166 105.488 28.3457 105.504C28.5254 105.512 28.7051 105.52 28.8848 105.527C29.0645 105.535 29.2207 105.539 29.3535 105.539C29.6738 105.539 30.002 105.531 30.3379 105.516C30.6738 105.5 30.9902 105.48 31.2871 105.457C31.5918 105.426 31.8652 105.395 32.1074 105.363C32.3496 105.332 32.541 105.297 32.6816 105.258L33.0918 105.527C32.959 105.918 32.7793 106.281 32.5527 106.617C32.7324 106.633 32.9238 106.648 33.127 106.664C33.3379 106.68 33.5215 106.684 33.6777 106.676C33.8652 106.668 34.0723 106.66 34.2988 106.652C34.5254 106.645 34.7402 106.633 34.9434 106.617V105.469C34.9434 105.227 34.8262 105.031 34.5918 104.883C34.3652 104.727 33.9941 104.586 33.4785 104.461L33.6895 104.027C33.877 104.051 34.084 104.082 34.3105 104.121C34.5371 104.152 34.7637 104.191 34.9902 104.238C35.2168 104.277 35.4316 104.316 35.6348 104.355C35.8457 104.395 36.0293 104.426 36.1855 104.449C36.1699 104.52 36.1543 104.605 36.1387 104.707C36.123 104.809 36.1074 104.914 36.0918 105.023C36.0762 105.125 36.0645 105.219 36.0566 105.305C36.0488 105.391 36.0449 105.453 36.0449 105.492V108.152C36.0449 108.293 36.0371 108.457 36.0215 108.645C36.0137 108.832 35.998 109.023 35.9746 109.219C35.959 109.406 35.9395 109.586 35.916 109.758C35.8926 109.922 35.8691 110.051 35.8457 110.145L35.0371 110.273C35.0215 110.141 35.0059 109.969 34.9902 109.758C34.9746 109.547 34.959 109.34 34.9434 109.137C34.709 109.145 34.4629 109.156 34.2051 109.172C33.9473 109.188 33.6895 109.207 33.4316 109.23C33.1738 109.246 32.9238 109.27 32.6816 109.301C32.4395 109.324 32.2129 109.352 32.002 109.383L31.6152 108.48C31.7012 108.496 31.8066 108.512 31.9316 108.527C32.0645 108.543 32.2012 108.559 32.3418 108.574C32.4902 108.582 32.6348 108.59 32.7754 108.598C32.9238 108.598 33.0566 108.598 33.1738 108.598C33.4004 108.59 33.6777 108.586 34.0059 108.586C34.3418 108.578 34.6543 108.566 34.9434 108.551V107.203C34.498 107.219 34.0684 107.25 33.6543 107.297C33.248 107.336 32.873 107.387 32.5293 107.449L32.3301 106.992ZM34.7676 111.082C34.5801 111.074 34.3535 111.07 34.0879 111.07C33.8301 111.07 33.5605 111.078 33.2793 111.094C33.0059 111.102 32.7324 111.113 32.459 111.129C32.1934 111.137 31.9629 111.148 31.7676 111.164C31.6816 111.172 31.5684 111.184 31.4277 111.199C31.2949 111.207 31.1465 111.219 30.9824 111.234C30.8184 111.25 30.6504 111.27 30.4785 111.293C30.3145 111.316 30.1621 111.34 30.0215 111.363L29.4707 110.426C29.5645 110.441 29.6855 110.461 29.834 110.484C29.9902 110.5 30.1504 110.516 30.3145 110.531C30.4863 110.547 30.6543 110.562 30.8184 110.578C30.9902 110.586 31.1387 110.59 31.2637 110.59C31.5605 110.59 31.9043 110.59 32.2949 110.59C32.6934 110.59 33.1074 110.586 33.5371 110.578C33.9668 110.562 34.4004 110.543 34.8379 110.52C35.2754 110.496 35.6816 110.469 36.0566 110.438C36.0332 110.547 36.0098 110.656 35.9863 110.766C35.9707 110.859 35.9512 110.957 35.9277 111.059C35.9121 111.16 35.8965 111.246 35.8809 111.316L35.7285 112.312C35.791 112.305 35.8457 112.301 35.8926 112.301C35.9395 112.301 35.9863 112.297 36.0332 112.289L35.9512 113.027C35.5059 113.004 35.0488 112.992 34.5801 112.992C34.1191 112.992 33.6777 112.996 33.2559 113.004C32.834 113.012 32.4512 113.023 32.1074 113.039C31.7715 113.047 31.5059 113.055 31.3105 113.062C31.3027 113.125 31.2988 113.191 31.2988 113.262C31.2988 113.324 31.2988 113.387 31.2988 113.449V114.223C31.2988 114.34 31.3145 114.41 31.3457 114.434C31.3848 114.465 31.4785 114.484 31.627 114.492C31.9082 114.5 32.2637 114.496 32.6934 114.48C33.123 114.473 33.5684 114.453 34.0293 114.422C34.498 114.391 34.9551 114.352 35.4004 114.305C35.8535 114.258 36.2402 114.207 36.5605 114.152L36.3848 115.09C35.9629 115.074 35.5059 115.062 35.0137 115.055C34.5215 115.055 34.0332 115.059 33.5488 115.066C33.0645 115.074 32.5957 115.082 32.1426 115.09C31.6895 115.105 31.2871 115.121 30.9355 115.137C30.6699 115.152 30.4824 115.098 30.373 114.973C30.2637 114.848 30.209 114.684 30.209 114.48V113.625C30.209 113.484 30.1973 113.371 30.1738 113.285C30.1582 113.191 30.1191 113.113 30.0566 113.051C30.002 112.98 29.916 112.922 29.7988 112.875C29.6895 112.828 29.5449 112.773 29.3652 112.711L29.5293 112.359C29.9355 112.398 30.3613 112.426 30.8066 112.441C31.252 112.457 31.7012 112.465 32.1543 112.465C32.6074 112.465 33.0527 112.461 33.4902 112.453C33.9277 112.438 34.3418 112.418 34.7324 112.395L34.7676 111.082ZM44.0957 111.012C44.502 110.996 44.873 110.984 45.209 110.977C45.5449 110.961 45.8145 110.949 46.0176 110.941C46.541 110.918 47.0723 110.883 47.6113 110.836C48.1504 110.781 48.6348 110.723 49.0645 110.66L48.9121 111.621C48.7559 111.613 48.5723 111.605 48.3613 111.598C48.1582 111.59 47.9355 111.586 47.6934 111.586C47.4512 111.578 47.2012 111.57 46.9434 111.562C46.6855 111.555 46.4277 111.551 46.1699 111.551C45.9512 111.551 45.6738 111.555 45.3379 111.562C45.002 111.562 44.6348 111.566 44.2363 111.574C43.8457 111.582 43.4434 111.594 43.0293 111.609C42.6152 111.617 42.2207 111.629 41.8457 111.645C41.4785 111.66 41.1465 111.676 40.8496 111.691C40.5527 111.699 40.3262 111.707 40.1699 111.715C39.8809 111.738 39.5645 111.766 39.2207 111.797C38.877 111.828 38.5684 111.863 38.2949 111.902L37.8965 110.883C38.248 110.922 38.623 110.957 39.0215 110.988C39.4277 111.012 39.8066 111.031 40.1582 111.047C40.2988 111.055 40.4707 111.059 40.6738 111.059C40.8848 111.059 41.1152 111.059 41.3652 111.059C41.6152 111.059 41.8809 111.059 42.1621 111.059C42.4434 111.051 42.7285 111.043 43.0176 111.035V110.238C42.7207 110.199 42.4434 110.125 42.1855 110.016C41.9355 109.898 41.7168 109.762 41.5293 109.605C41.3418 109.441 41.1934 109.262 41.084 109.066C40.9824 108.863 40.9316 108.652 40.9316 108.434C40.9316 108.16 40.998 107.914 41.1309 107.695C41.2637 107.469 41.4434 107.277 41.6699 107.121C41.9043 106.957 42.1777 106.832 42.4902 106.746C42.8027 106.652 43.1387 106.605 43.498 106.605C43.8809 106.605 44.2324 106.656 44.5527 106.758C44.873 106.859 45.1426 106.996 45.3613 107.168C45.5879 107.332 45.7637 107.527 45.8887 107.754C46.0137 107.973 46.0762 108.199 46.0762 108.434C46.0762 108.652 46.0254 108.859 45.9238 109.055C45.8301 109.25 45.6934 109.43 45.5137 109.594C45.3418 109.75 45.1348 109.883 44.8926 109.992C44.6504 110.102 44.3848 110.18 44.0957 110.227V111.012ZM42.1504 108.41C42.1504 108.574 42.1855 108.73 42.2559 108.879C42.334 109.02 42.4355 109.148 42.5605 109.266C42.6855 109.375 42.8301 109.461 42.9941 109.523C43.1582 109.586 43.334 109.617 43.5215 109.617C43.709 109.617 43.8848 109.586 44.0488 109.523C44.2207 109.461 44.3652 109.379 44.4824 109.277C44.6074 109.168 44.7051 109.039 44.7754 108.891C44.8457 108.742 44.8809 108.582 44.8809 108.41C44.8809 108.066 44.7559 107.773 44.5059 107.531C44.2637 107.281 43.9355 107.156 43.5215 107.156C43.334 107.156 43.1543 107.188 42.9824 107.25C42.8184 107.305 42.6738 107.387 42.5488 107.496C42.4316 107.605 42.334 107.738 42.2559 107.895C42.1855 108.043 42.1504 108.215 42.1504 108.41ZM45.1973 105.082C45.0645 105.082 44.9004 105.082 44.7051 105.082C44.5176 105.082 44.3262 105.086 44.1309 105.094C43.9355 105.102 43.752 105.109 43.5801 105.117C43.4082 105.117 43.2715 105.117 43.1699 105.117C43.1152 105.117 43.0293 105.121 42.9121 105.129C42.8027 105.129 42.6816 105.133 42.5488 105.141C42.4238 105.148 42.2949 105.16 42.1621 105.176C42.0293 105.184 41.916 105.195 41.8223 105.211L41.3418 104.344C41.4355 104.359 41.5566 104.379 41.7051 104.402C41.8535 104.418 42.0059 104.434 42.1621 104.449C42.3262 104.465 42.4824 104.48 42.6309 104.496C42.7871 104.504 42.916 104.508 43.0176 104.508C43.1035 104.508 43.2402 104.504 43.4277 104.496C43.623 104.488 43.834 104.477 44.0605 104.461C44.2871 104.445 44.5176 104.43 44.752 104.414C44.9941 104.391 45.2051 104.367 45.3848 104.344L45.1973 105.082ZM47.4355 106.219C47.2246 106.211 46.9473 106.207 46.6035 106.207C46.2676 106.199 45.9004 106.199 45.502 106.207C45.1035 106.215 44.6895 106.227 44.2598 106.242C43.8379 106.25 43.4355 106.262 43.0527 106.277C42.6777 106.293 42.3418 106.309 42.0449 106.324C41.7559 106.332 41.541 106.34 41.4004 106.348C41.3066 106.348 41.1816 106.355 41.0254 106.371C40.8691 106.379 40.7051 106.391 40.5332 106.406C40.3613 106.422 40.1934 106.438 40.0293 106.453C39.873 106.469 39.7441 106.484 39.6426 106.5L39.2324 105.551C39.3418 105.574 39.4824 105.598 39.6543 105.621C39.8262 105.637 40.002 105.652 40.1816 105.668C40.3691 105.684 40.5488 105.699 40.7207 105.715C40.8926 105.723 41.0371 105.727 41.1543 105.727C41.334 105.727 41.5762 105.723 41.8809 105.715C42.1934 105.707 42.5371 105.695 42.9121 105.68C43.2949 105.664 43.6973 105.648 44.1191 105.633C44.5488 105.609 44.9746 105.586 45.3965 105.562C45.8184 105.531 46.2246 105.504 46.6152 105.48C47.0137 105.449 47.3691 105.414 47.6816 105.375L47.4355 106.219ZM47.4824 114.984C46.998 114.961 46.4746 114.941 45.9121 114.926C45.3574 114.918 44.8066 114.918 44.2598 114.926C43.7129 114.934 43.1934 114.941 42.7012 114.949C42.209 114.965 41.7871 114.984 41.4355 115.008C41.1543 115.023 40.9551 114.969 40.8379 114.844C40.7285 114.719 40.6738 114.57 40.6738 114.398V113.613C40.6738 113.441 40.666 113.305 40.6504 113.203C40.6348 113.094 40.5918 113.004 40.5215 112.934C40.4512 112.863 40.3457 112.805 40.2051 112.758C40.0723 112.711 39.8848 112.656 39.6426 112.594L39.8301 112.16C39.9473 112.176 40.0957 112.195 40.2754 112.219C40.4551 112.242 40.6387 112.266 40.8262 112.289C41.0215 112.312 41.209 112.34 41.3887 112.371C41.5762 112.395 41.7285 112.414 41.8457 112.43C41.8301 112.523 41.8145 112.664 41.7988 112.852C41.7832 113.031 41.7754 113.195 41.7754 113.344V114.023C41.7754 114.172 41.7988 114.262 41.8457 114.293C41.8926 114.332 41.998 114.355 42.1621 114.363C42.3574 114.371 42.5957 114.371 42.877 114.363C43.166 114.363 43.4746 114.355 43.8027 114.34C44.1387 114.332 44.4824 114.316 44.834 114.293C45.1934 114.277 45.541 114.258 45.877 114.234C46.2207 114.211 46.5449 114.184 46.8496 114.152C47.1543 114.129 47.4199 114.098 47.6465 114.059L47.4824 114.984ZM58.2871 108.094C58.623 108.07 59.002 108.035 59.4238 107.988C59.8457 107.941 60.2324 107.891 60.584 107.836L60.4668 108.762C60.334 108.754 60.1738 108.75 59.9863 108.75C59.8066 108.742 59.6191 108.738 59.4238 108.738C59.2285 108.738 59.0293 108.738 58.8262 108.738C58.6309 108.738 58.4473 108.738 58.2754 108.738C58.2754 108.879 58.2676 109.039 58.252 109.219C58.2441 109.391 58.2285 109.562 58.2051 109.734C58.1895 109.906 58.1738 110.066 58.1582 110.215C58.1426 110.363 58.127 110.48 58.1113 110.566L57.2793 110.684C57.2637 110.605 57.252 110.504 57.2441 110.379C57.2363 110.254 57.2246 110.125 57.209 109.992C57.2012 109.852 57.1934 109.715 57.1855 109.582C57.1855 109.441 57.1855 109.316 57.1855 109.207V105.469C57.1855 105.227 57.0723 105.031 56.8457 104.883C56.627 104.727 56.2598 104.586 55.7441 104.461L55.9316 104.027C56.127 104.051 56.3379 104.082 56.5645 104.121C56.791 104.152 57.0176 104.191 57.2441 104.238C57.4707 104.277 57.6855 104.316 57.8887 104.355C58.0996 104.395 58.2793 104.426 58.4277 104.449C58.4121 104.52 58.3926 104.605 58.3691 104.707C58.3535 104.809 58.3379 104.914 58.3223 105.023C58.3145 105.125 58.3066 105.219 58.2988 105.305C58.291 105.391 58.2871 105.453 58.2871 105.492V108.094ZM56.4004 106.688C56.2207 106.688 56.002 106.688 55.7441 106.688C55.4863 106.688 55.2051 106.691 54.9004 106.699C54.6035 106.699 54.2949 106.703 53.9746 106.711C53.6543 106.719 53.3457 106.727 53.0488 106.734C52.752 106.742 52.4785 106.754 52.2285 106.77C51.9785 106.777 51.7715 106.785 51.6074 106.793C51.5137 106.801 51.3887 106.812 51.2324 106.828C51.084 106.836 50.9277 106.848 50.7637 106.863C50.5996 106.879 50.4434 106.895 50.2949 106.91C50.1465 106.926 50.0254 106.941 49.9316 106.957L49.4863 105.996C49.5879 106.02 49.7168 106.043 49.873 106.066C50.0293 106.082 50.1895 106.098 50.3535 106.113C50.5176 106.129 50.6777 106.145 50.834 106.16C50.9902 106.168 51.123 106.172 51.2324 106.172C51.498 106.172 51.8496 106.168 52.2871 106.16C52.7324 106.145 53.2051 106.125 53.7051 106.102C54.2129 106.07 54.7168 106.035 55.2168 105.996C55.7246 105.949 56.1699 105.891 56.5527 105.82L56.4004 106.688ZM54.666 105.457C54.5332 105.457 54.3887 105.457 54.2324 105.457C54.0762 105.457 53.9199 105.461 53.7637 105.469C53.6074 105.469 53.4551 105.473 53.3066 105.48C53.166 105.48 53.0449 105.48 52.9434 105.48C52.8887 105.48 52.8105 105.484 52.709 105.492C52.6074 105.492 52.4941 105.5 52.3691 105.516C52.2441 105.523 52.1191 105.535 51.9941 105.551C51.8691 105.559 51.7559 105.566 51.6543 105.574L51.1738 104.684C51.2676 104.707 51.3848 104.73 51.5254 104.754C51.666 104.777 51.8105 104.801 51.959 104.824C52.1152 104.84 52.2637 104.855 52.4043 104.871C52.5527 104.879 52.6777 104.883 52.7793 104.883C52.873 104.883 53.002 104.879 53.166 104.871C53.3301 104.863 53.5059 104.852 53.6934 104.836C53.8887 104.812 54.084 104.789 54.2793 104.766C54.4824 104.742 54.6738 104.719 54.8535 104.695L54.666 105.457ZM55.5801 108.961C55.5801 109.219 55.5176 109.461 55.3926 109.688C55.2676 109.906 55.0918 110.102 54.8652 110.273C54.6465 110.445 54.3887 110.582 54.0918 110.684C53.7949 110.777 53.4707 110.824 53.1191 110.824C52.7754 110.824 52.4551 110.773 52.1582 110.672C51.8613 110.57 51.5996 110.438 51.373 110.273C51.1543 110.102 50.9824 109.902 50.8574 109.676C50.7324 109.449 50.6699 109.211 50.6699 108.961C50.6699 108.688 50.7324 108.438 50.8574 108.211C50.9824 107.977 51.1543 107.777 51.373 107.613C51.5996 107.441 51.8613 107.309 52.1582 107.215C52.4551 107.121 52.7754 107.074 53.1191 107.074C53.4785 107.074 53.8105 107.125 54.1152 107.227C54.4199 107.328 54.6777 107.469 54.8887 107.648C55.1074 107.82 55.2754 108.02 55.3926 108.246C55.5176 108.473 55.5801 108.711 55.5801 108.961ZM51.8418 108.902C51.8418 109.082 51.873 109.25 51.9355 109.406C52.0059 109.562 52.0996 109.703 52.2168 109.828C52.334 109.945 52.4707 110.039 52.627 110.109C52.7832 110.18 52.9512 110.215 53.1309 110.215C53.3027 110.215 53.4668 110.184 53.623 110.121C53.7793 110.051 53.916 109.957 54.0332 109.84C54.1504 109.723 54.2441 109.586 54.3145 109.43C54.3848 109.266 54.4199 109.09 54.4199 108.902C54.4199 108.73 54.3848 108.566 54.3145 108.41C54.252 108.246 54.1621 108.105 54.0449 107.988C53.9277 107.871 53.791 107.777 53.6348 107.707C53.4785 107.637 53.3105 107.602 53.1309 107.602C52.7715 107.602 52.4668 107.719 52.2168 107.953C51.9668 108.188 51.8418 108.504 51.8418 108.902ZM57.1973 114.762C56.6582 114.738 56.0918 114.738 55.498 114.762C54.9121 114.785 54.3105 114.809 53.6934 114.832C53.6777 114.902 53.6621 114.969 53.6465 115.031C53.6387 115.102 53.627 115.164 53.6113 115.219L52.8496 115.348C52.8262 115.191 52.8027 114.996 52.7793 114.762C52.7559 114.535 52.7441 114.312 52.7441 114.094V112.348C52.7441 112.223 52.7324 112.117 52.709 112.031C52.6855 111.938 52.6387 111.859 52.5684 111.797C52.5059 111.727 52.4121 111.668 52.2871 111.621C52.1621 111.574 51.998 111.527 51.7949 111.48L51.9941 111.082C52.1191 111.098 52.2637 111.113 52.4277 111.129C52.5918 111.145 52.7598 111.168 52.9316 111.199C53.1113 111.223 53.2871 111.25 53.459 111.281C53.6387 111.312 53.8027 111.344 53.9512 111.375C53.9355 111.445 53.916 111.527 53.8926 111.621C53.877 111.707 53.8613 111.797 53.8457 111.891C53.8379 111.977 53.8301 112.062 53.8223 112.148C53.8145 112.227 53.8105 112.289 53.8105 112.336C54.3496 112.32 54.9004 112.301 55.4629 112.277C56.0254 112.254 56.5879 112.215 57.1504 112.16V111.973C57.1504 111.848 57.1348 111.746 57.1035 111.668C57.0723 111.582 57.0176 111.508 56.9395 111.445C56.8613 111.375 56.752 111.316 56.6113 111.27C56.4785 111.215 56.3066 111.16 56.0957 111.105L56.2715 110.672C56.5996 110.711 56.9551 110.758 57.3379 110.812C57.7207 110.867 58.0605 110.926 58.3574 110.988C58.3418 111.059 58.3262 111.141 58.3105 111.234C58.2949 111.328 58.2793 111.422 58.2637 111.516C58.2559 111.609 58.248 111.695 58.2402 111.773C58.2324 111.852 58.2285 111.914 58.2285 111.961V113.438C58.2285 113.789 58.209 114.105 58.1699 114.387C58.1309 114.676 58.0918 114.91 58.0527 115.09L57.2559 115.207C57.2402 115.145 57.2285 115.074 57.2207 114.996C57.2207 114.926 57.2129 114.848 57.1973 114.762ZM57.1504 113.941V112.875C56.6113 112.859 56.0605 112.855 55.498 112.863C54.9434 112.871 54.3809 112.895 53.8105 112.934V113.59C53.8105 113.816 53.7988 114.023 53.7754 114.211C54.3145 114.195 54.873 114.176 55.4512 114.152C56.0371 114.137 56.6035 114.109 57.1504 114.07V113.941ZM68.9746 105.469C68.9746 105.227 68.8574 105.031 68.623 104.883C68.3965 104.727 68.0254 104.586 67.5098 104.461L67.709 104.027C67.8965 104.051 68.1035 104.082 68.3301 104.121C68.5566 104.152 68.7832 104.191 69.0098 104.238C69.2363 104.277 69.4512 104.316 69.6543 104.355C69.8652 104.395 70.0488 104.426 70.2051 104.449C70.1895 104.52 70.1738 104.605 70.1582 104.707C70.1426 104.809 70.127 104.914 70.1113 105.023C70.1035 105.125 70.0957 105.219 70.0879 105.305C70.0801 105.391 70.0762 105.453 70.0762 105.492V111.984C70.0762 112.227 70.0684 112.508 70.0527 112.828C70.0449 113.141 70.0293 113.457 70.0059 113.777C69.9902 114.09 69.9707 114.387 69.9473 114.668C69.9238 114.957 69.8965 115.188 69.8652 115.359L69.0801 115.465C69.0645 115.34 69.0488 115.172 69.0332 114.961C69.0254 114.75 69.0137 114.523 68.998 114.281C68.9902 114.047 68.9824 113.805 68.9746 113.555C68.9746 113.297 68.9746 113.055 68.9746 112.828V110.391C68.623 110.531 68.2168 110.676 67.7559 110.824C67.2949 110.965 66.8262 111.102 66.3496 111.234C65.873 111.367 65.4043 111.488 64.9434 111.598C64.4824 111.699 64.0762 111.777 63.7246 111.832C63.3262 111.895 63.0371 111.848 62.8574 111.691C62.6777 111.527 62.5879 111.258 62.5879 110.883V107.309C62.5879 107.184 62.5723 107.082 62.541 107.004C62.5176 106.918 62.4629 106.844 62.377 106.781C62.2988 106.719 62.1816 106.664 62.0254 106.617C61.8691 106.57 61.6621 106.523 61.4043 106.477L61.5684 106.043C61.9668 106.059 62.3691 106.094 62.7754 106.148C63.1816 106.195 63.5332 106.246 63.8301 106.301C63.8145 106.371 63.7949 106.457 63.7715 106.559C63.7559 106.66 63.7402 106.762 63.7246 106.863C63.7168 106.965 63.709 107.059 63.7012 107.145C63.6934 107.23 63.6895 107.293 63.6895 107.332V110.637C63.6895 110.77 63.7129 110.863 63.7598 110.918C63.8066 110.965 63.877 110.984 63.9707 110.977C64.2363 110.961 64.5801 110.918 65.002 110.848C65.4238 110.777 65.8652 110.691 66.3262 110.59C66.7949 110.48 67.2598 110.367 67.7207 110.25C68.1895 110.125 68.6074 110 68.9746 109.875V105.469ZM79.8496 105.469C79.8496 105.227 79.7363 105.031 79.5098 104.883C79.291 104.727 78.9238 104.586 78.4082 104.461L78.584 104.027C78.7793 104.051 78.9902 104.082 79.2168 104.121C79.4512 104.152 79.6816 104.191 79.9082 104.238C80.1348 104.277 80.3496 104.316 80.5527 104.355C80.7559 104.395 80.9316 104.426 81.0801 104.449C81.0645 104.52 81.0488 104.605 81.0332 104.707C81.0176 104.809 81.002 104.914 80.9863 105.023C80.9785 105.125 80.9707 105.219 80.9629 105.305C80.9551 105.391 80.9512 105.453 80.9512 105.492V108.738C81.2871 108.715 81.6738 108.68 82.1113 108.633C82.5488 108.586 82.9473 108.531 83.3066 108.469L83.1777 109.418C83.0371 109.41 82.873 109.406 82.6855 109.406C82.498 109.406 82.3027 109.406 82.0996 109.406C81.9043 109.406 81.7051 109.406 81.502 109.406C81.2988 109.406 81.1152 109.406 80.9512 109.406V111.984C80.9512 112.227 80.9473 112.508 80.9395 112.828C80.9316 113.141 80.9199 113.457 80.9043 113.777C80.8887 114.09 80.8691 114.387 80.8457 114.668C80.8223 114.957 80.7949 115.188 80.7637 115.359L79.9551 115.465C79.9395 115.34 79.9238 115.172 79.9082 114.961C79.9004 114.75 79.8887 114.523 79.873 114.281C79.8652 114.047 79.8574 113.805 79.8496 113.555C79.8496 113.297 79.8496 113.055 79.8496 112.828V110.59C79.4902 110.73 79.084 110.875 78.6309 111.023C78.1855 111.172 77.7285 111.312 77.2598 111.445C76.791 111.578 76.334 111.699 75.8887 111.809C75.4434 111.91 75.0449 111.984 74.6934 112.031C74.2871 112.094 73.9941 112.047 73.8145 111.891C73.6426 111.727 73.5566 111.457 73.5566 111.082V107.672C73.5566 107.531 73.5449 107.41 73.5215 107.309C73.498 107.199 73.4473 107.109 73.3691 107.039C73.2988 106.961 73.1934 106.895 73.0527 106.84C72.9199 106.777 72.7441 106.715 72.5254 106.652L72.7012 106.219C73.1465 106.289 73.6191 106.336 74.1191 106.359C74.627 106.375 75.1348 106.375 75.6426 106.359C76.1504 106.336 76.6426 106.301 77.1191 106.254C77.6035 106.199 78.0449 106.137 78.4434 106.066L78.2676 106.969C77.5332 106.938 76.8613 106.93 76.252 106.945C75.6504 106.961 75.1191 106.988 74.6582 107.027V110.848C74.6582 110.98 74.6816 111.07 74.7285 111.117C74.7832 111.164 74.8535 111.184 74.9395 111.176C75.2051 111.16 75.541 111.117 75.9473 111.047C76.3613 110.969 76.7949 110.879 77.248 110.777C77.709 110.676 78.166 110.566 78.6191 110.449C79.0801 110.324 79.4902 110.203 79.8496 110.086V105.469ZM84.9121 112.863C85.1387 112.863 85.3301 112.941 85.4863 113.098C85.6504 113.254 85.7324 113.445 85.7324 113.672C85.7324 113.898 85.6504 114.09 85.4863 114.246C85.3301 114.41 85.1387 114.492 84.9121 114.492C84.6855 114.492 84.4902 114.41 84.3262 114.246C84.1699 114.09 84.0918 113.898 84.0918 113.672C84.0918 113.445 84.1699 113.254 84.3262 113.098C84.4902 112.941 84.6855 112.863 84.9121 112.863Z" fill="#D28BB3"/>
<path d="M65.5349 137.503C65.0707 137.026 64.5194 136.648 63.9128 136.391C63.3061 136.133 62.6558 136 61.9991 136C61.3424 136 60.6921 136.133 60.0854 136.391C59.4787 136.648 58.9275 137.026 58.4633 137.503L57.4998 138.491L56.5363 137.503C55.5985 136.541 54.3266 136 53.0004 136C51.6742 136 50.4024 136.541 49.4646 137.503C48.5268 138.465 48 139.77 48 141.13C48 142.491 48.5268 143.795 49.4646 144.757L50.4281 145.746L57.4998 153L64.5714 145.746L65.5349 144.757C65.9994 144.281 66.3678 143.716 66.6192 143.093C66.8706 142.471 67 141.804 67 141.13C67 140.456 66.8706 139.789 66.6192 139.167C66.3678 138.545 65.9994 137.979 65.5349 137.503Z" fill="#D28BB3" fill-opacity="0.5"/>
</svg>
